<?xml version="1.0" ?><svg height="72px" version="1.1" viewBox="0 0 100 72" width="100px" xmlns="http://www.w3.org/2000/svg" xmlns:xlink="http://www.w3.org/1999/xlink"><title/><desc/><defs><radialGradient cx="50%" cy="50%" fx="50%" fy="50%" gradientTransform="translate(0.500000,0.500000),scale(0.714286,1.000000),rotate(37.594714),translate(-0.500000,-0.500000)" id="radialGradient-1" r="98.0571219%"><stop offset="0%" stop-color="#FFFFFF"/><stop offset="100%" stop-color="#E5E5E5"/></radialGradient><rect height="71.4285714" id="path-2" rx="6.63157895" width="100" x="0" y="0"/><linearGradient id="linearGradient-4" x1="-6.50685821%" x2="114.331907%" y1="2.08234867%" y2="-3.27052987%"><stop offset="0%" stop-color="#2BA7DF"/><stop offset="40.625%" stop-color="#175882"/><stop offset="100%" stop-color="#EBC71B"/></linearGradient><polygon id="path-5" points="11.2342316 15.6026707 11.2342316 0.0872958075 0.059767075 0.0872958075 0.059767075 15.6026707 11.2342316 15.6026707"/></defs><g fill="none" fill-rule="evenodd" id="Content" stroke="none" stroke-width="1"><g id="Indonesian-Bank-Icons" transform="translate(-690.000000, -887.000000)"><g id="BJB" transform="translate(690.000000, 887.000000)"><mask fill="white" id="mask-3"><use xlink:href="#path-2"/></mask><use fill="url(#radialGradient-1)" id="Background" xlink:href="#path-2"/><path d="M52.8571429,71.4285714 C52.8571429,71.4285714 69.2857143,70 81.4285714,65 C93.9847504,59.8298087 100,54.1863991 100,45 C100,23.5714286 100,71.4285714 100,71.4285714 L52.8571429,71.4285714 Z" fill="#165781" id="Accent" mask="url(#mask-3)"/><g id="Logo-Bank-BJB" mask="url(#mask-3)"><g transform="translate(11.428571, 11.428571)"><path d="M26.4384379,7.86751118 L25.9256954,10.3940208 C30.9818182,10.3746843 46.8889689,4.49545248 47.6279379,0.987287422 L47.6279379,0.987287422 C47.6279379,0.987850621 47.6764683,0.757314596 47.7242521,0.526778571 L47.7242521,0.526778571 C47.7718492,0.296054814 47.8185131,0.0655187888 47.8151533,0.0655187888 L47.8151533,0.0655187888 C40.9242074,4.72955543 30.5131263,7.85756134 26.4384379,7.86751118 M25.4738025,12.2274205 L24.9963379,14.5536191 C29.8704716,14.5434815 45.9590515,8.65448758 46.6980204,5.14726118 L46.6980204,5.14726118 L46.9020348,4.1430778 C39.7760897,9.10636071 29.7961828,12.1063328 25.4738025,12.2274205 M24.4350649,16.4711231 L23.9400547,18.909586 L23.9430412,18.9957554 C28.8714917,18.8846175 44.8872759,13.0936202 45.6247516,9.59089938 L45.6247516,9.59089938 L45.8679636,8.39091056 C40.3448289,12.2525767 28.8830643,16.495153 24.4350649,16.4711231" fill="url(#linearGradient-4)" id="Fill-1"/><g fill="none" id="Group-21" stroke-width="1" transform="translate(0.000000, 23.907600)"><path d="M0.0847602398,0.35357618 L1.93152926,0.35357618 L1.93152926,6.84200134 L1.97390005,6.84200134 C2.63186051,5.68988441 3.82029576,4.94270739 5.47611625,4.94270739 C8.02377649,4.94270739 9.82668148,7.07647975 9.80484279,10.2159374 C9.80484279,13.9067666 7.49255508,15.7427945 5.19949288,15.7427945 C3.71352884,15.7427945 2.52472028,15.166079 1.76148615,13.8005097 L1.69727667,13.8005097 L1.61402834,15.5081284 L1.86655451e-05,15.5081284 C0.042949419,14.8031912 0.0847602398,13.7563925 0.0847602398,12.8398804 L0.0847602398,0.35357618 Z M1.93152926,11.3669279 C1.93152926,11.601594 1.97390005,11.8351338 2.0168308,12.0499002 C2.37726247,13.3510771 3.45930412,14.2488159 4.81759583,14.2488159 C6.77019849,14.2488159 7.93754167,12.6472664 7.93754167,10.2778892 C7.93754167,8.20757059 6.87584547,6.43555957 4.88143199,6.43555957 C3.60732189,6.43555957 2.4190733,7.3111459 2.03661628,8.74204621 C1.99480546,8.95549854 1.93152926,9.21025211 1.93152926,9.50987385 L1.93152926,11.3669279 Z" fill="#165781" id="Fill-3"/><path d="M19.1226268,13.0314055 C19.1226268,13.9287689 19.1649976,14.8032288 19.29211,15.5079782 L17.594292,15.5079782 L17.445341,14.2054872 L17.3820648,14.2054872 C16.8080993,15.0178075 15.7040323,15.7426443 14.2412135,15.7426443 C12.1605652,15.7426443 11.1009222,14.2708182 11.1009222,12.7768397 C11.1009222,10.2779268 13.307003,8.91141885 17.2752979,8.93451 L17.2752979,8.71974354 C17.2752979,7.86649742 17.0425385,6.32952801 14.9419181,6.32952801 C13.9853089,6.32952801 12.9891288,6.62727242 12.2667722,7.09848205 L11.8415711,5.86019571 C12.6908534,5.3058204 13.9237126,4.94274494 15.2166749,4.94274494 C18.3584594,4.94274494 19.1226268,7.09848205 19.1226268,9.16804975 L19.1226268,13.0314055 Z M17.3186019,10.2349359 C15.2799511,10.1917574 12.9674767,10.5559592 12.9674767,12.5611345 C12.9674767,13.7783948 13.7736416,14.356049 14.7280109,14.356049 C16.0659572,14.356049 16.9143062,13.5005501 17.2114617,12.6262779 C17.2752979,12.4327252 17.3186019,12.2202116 17.3186019,12.028724 L17.3186019,10.2349359 Z" fill="#165781" id="Fill-5"/><path d="M21.988348,7.97177804 C21.988348,6.90489186 21.9657627,6.03174606 21.9030464,5.17624714 L23.5570004,5.17624714 L23.6641406,6.88386578 L23.7065114,6.88386578 C24.2164541,5.90333674 25.4048893,4.94158099 27.1030806,4.94158099 C28.5231553,4.94158099 30.7312892,5.79595351 30.7312892,9.3384737 L30.7312892,15.507002 L28.8630548,15.507002 L28.8630548,9.55211376 C28.8630548,7.8865473 28.2489584,6.49882556 26.4865577,6.49882556 C25.2557516,6.49882556 24.2997024,7.37516283 23.9816415,8.42121065 C23.8968999,8.6547504 23.8539692,8.97558596 23.8539692,9.29754792 L23.8539692,15.507002 L21.988348,15.507002" fill="#165781" id="Fill-7"/><path d="M35.3158084,9.91511413 L35.3581792,9.91511413 C35.6127772,9.55203866 35.9728356,9.10392019 36.2712976,8.74084472 L39.2846632,5.17635978 L41.5340481,5.17635978 L37.5653799,9.42475575 L42.0848683,15.5069269 L39.8153247,15.5069269 L36.2712976,10.5558466 L35.3158084,11.6227328 L35.3158084,15.5069269 L33.4684794,15.5069269 L33.4684794,0.353501087 L35.3158084,0.353501087" fill="#165781" id="Fill-9"/><path d="M57.4731169,5.54243898 C57.4034944,5.45946102 57.3344319,5.37516894 57.260703,5.29951258 C57.1404969,5.17316832 57.0059183,5.05527205 56.8625669,4.9437587 C56.0901867,4.3084705 55.1559761,3.93469425 54.1491566,3.93469425 C53.0628219,3.93469425 52.0623487,4.37342609 51.2567438,5.10370714 C51.2332252,5.11853804 51.2128798,5.13524627 51.1893612,5.14782438 C51.1606162,5.16359394 51.1197387,5.18368137 51.0721415,5.17091553 C50.9398028,5.13637267 50.7985047,4.99425885 50.7975714,4.79131957 L50.7975714,0.567141149 C50.7975714,0.301874534 50.5810511,0.0872958075 50.3158137,0.0872958075 L48.2717498,0.0872958075 C48.0050192,0.0872958075 47.7901788,0.301874534 47.7901788,0.567141149 L47.7901788,0.71319736 C47.7901788,0.719768012 47.7884989,0.723898137 47.7884989,0.728966925 L47.7884989,1.21951304 L47.792232,14.8378467 C47.792232,15.1081821 48.0098722,15.3270787 48.2775361,15.3270787 L50.1280383,15.3270787 C50.2458179,15.3270787 50.3529581,15.2829615 50.4367664,15.2114352 C50.4403128,15.2091825 50.444046,15.2091825 50.4457259,15.2073051 C50.4487123,15.2050523 50.4492723,15.2018609 50.4513255,15.1996081 C50.4910831,15.1650652 50.5220679,15.123013 50.548013,15.0777694 L50.549133,15.0777694 C50.5810511,15.0178826 50.6023298,14.9546166 50.6094227,14.8842168 C50.6463805,14.5832809 50.8500216,14.4171373 50.9763873,14.4601281 C51.019878,14.4738326 51.0611289,14.4948587 51.1034997,14.5254592 C51.1468037,14.5526804 51.1893612,14.5810281 51.231172,14.6084371 C51.3566044,14.7009894 51.9079846,15.0809609 52.3354256,15.2722607 C52.550826,15.3681922 53.2371581,15.6026707 54.0336169,15.6026707 C54.8308223,15.6026707 55.397135,15.4250753 55.5305936,15.3890306 C55.6647989,15.3533613 55.7965776,15.3083054 55.9233167,15.2491696 C56.5473059,14.9799606 57.0490357,14.6084371 57.4301861,14.1392925 C57.8072301,13.6784082 58.1200647,13.1324809 58.3726095,12.5052652 C58.7492802,11.6803668 58.9635606,10.7334419 58.9635606,9.72569161 C58.9635606,8.07908618 58.3905284,6.59674705 57.4731169,5.54243898 M53.2532105,13.4279725 C51.7553005,13.4279725 50.5407335,11.804646 50.5407335,9.80453944 C50.5407335,7.80349425 51.7553005,6.18110637 53.2532105,6.18110637 C54.7496272,6.18110637 55.9630743,7.80349425 55.9630743,9.80453944 C55.9630743,11.804646 54.7496272,13.4279725 53.2532105,13.4279725" fill="#165781" id="Fill-11"/><g fill="#165781" id="Group-15" transform="translate(59.356433, 4.130124)"><path d="M4.92759188,1.0166864 C4.92535202,0.989465124 4.9229255,0.962056118 4.92068563,0.935773509 L4.92068563,0.574763106 C4.92068563,0.303489037 4.70267206,0.0834660559 4.43332825,0.0834660559 L2.37414533,0.0834660559 C2.10368158,0.0834660559 1.88510805,0.303489037 1.88510805,0.574763106 L1.88510805,11.7356729 C1.87465534,12.0197128 1.53102266,12.4090709 1.13344655,12.5057533 C0.950337557,12.5626364 0.767415216,12.588919 0.58225301,12.580471 C0.398024081,12.5742758 0.271658342,12.6488058 0.199795993,12.8055628 C0.171984331,12.875024 0.151638887,12.9687027 0.135399863,13.0832198 C0.123080604,13.1969859 0.138759661,14.3932201 0.147532468,14.4921553 C0.154998686,14.592217 0.171984331,14.6763213 0.199795993,14.7478476 C0.285097534,14.8760692 0.434235238,14.9612999 0.645529208,15.0044785 C0.716271623,15.0339525 2.08445607,15.037144 3.00373416,14.8129909 C3.36528577,14.7256951 3.65516168,14.5499771 3.89706714,14.3658111 C4.13579946,14.17958 4.34895999,13.9451016 4.53430885,13.6589966 C4.74709606,13.3178859 4.86319575,12.8876021 4.88503444,12.3679574 C4.89156738,12.2112004 4.92068563,11.8019426 4.92068563,11.7535075 L4.92068563,1.61330161 C4.9229255,1.55867134 4.92441874,1.50404106 4.92759188,1.44490519 C4.93431148,1.30279137 4.93431148,1.15992661 4.92759188,1.0166864" id="Fill-13"/></g><g id="Group-18" transform="translate(66.635996, 0.000000)"><mask fill="white" id="mask-6"><use xlink:href="#path-5"/></mask><g id="Clip-17"/><path d="M9.74363847,5.54243898 C9.67513592,5.45946102 9.60626006,5.37516894 9.53122456,5.29951258 C9.41101846,5.17316832 9.27606657,5.05527205 9.13383511,4.9437587 C8.36145486,4.3084705 7.42724433,3.93469425 6.41967822,3.93469425 C5.33409012,3.93469425 4.33436353,4.37342609 3.52894527,5.10370714 C3.50430675,5.11853804 3.4839613,5.13524627 3.45950944,5.14782438 C3.43132447,5.16359394 3.39194017,5.18368137 3.34396971,5.17091553 C3.211631,5.13637267 3.06977286,4.99425885 3.06753299,4.79131957 L3.06753299,0.567141149 C3.06753299,0.301874534 2.8521326,0.0872958075 2.58708187,0.0872958075 L0.543578001,0.0872958075 C0.276660708,0.0872958075 0.0612603186,0.301874534 0.0612603186,0.567141149 L0.0612603186,0.71319736 C0.0612603186,0.719768012 0.059767075,0.723898137 0.059767075,0.728966925 L0.059767075,1.21951304 L0.0623802513,14.8378467 C0.0623802513,15.1081821 0.280393817,15.3270787 0.549177664,15.3270787 L2.39781324,15.3270787 C2.51689942,15.3270787 2.62459961,15.2829615 2.70878122,15.2114352 C2.7113944,15.2091825 2.71363426,15.2091825 2.71624744,15.2073051 C2.71923392,15.2050523 2.72035386,15.2018609 2.72315369,15.1996081 C2.76067143,15.1650652 2.79370945,15.123013 2.81965456,15.0777694 L2.82077449,15.0755166 C2.8521326,15.0178826 2.87359798,14.9546166 2.88031758,14.8842168 C2.91764867,14.5832809 3.11998317,14.4171373 3.24709554,14.4601281 C3.29058626,14.4738326 3.33333035,14.4948587 3.37532783,14.5254592 C3.416952,14.5526804 3.45950944,14.5810281 3.5028135,14.6084371 C3.62731269,14.7009894 4.17962616,15.0809609 4.60632052,15.2722607 C4.82190757,15.3681922 5.50711972,15.6026707 6.30525843,15.6026707 C7.10134392,15.6026707 7.66672328,15.4250753 7.80167517,15.3890306 C7.93606709,15.3533613 8.06728587,15.3083054 8.19439823,15.2491696 C8.81633419,14.9799606 9.3199306,14.6084371 9.70182765,14.1392925 C10.0788717,13.6784082 10.3913329,13.1324809 10.6438777,12.5052652 C11.0198018,11.6803668 11.2342689,10.7334419 11.2342689,9.72569161 C11.2342689,8.07908618 10.66049,6.59674705 9.74363847,5.54243898 M5.52429202,13.4279725 C4.02638204,13.4279725 2.81237499,11.804646 2.81237499,9.80453944 C2.81237499,7.80349425 4.02638204,6.18110637 5.52429202,6.18110637 C7.02126873,6.18110637 8.23471581,7.80349425 8.23471581,9.80453944 C8.23471581,11.804646 7.02126873,13.4279725 5.52429202,13.4279725" fill="#165781" id="Fill-16" mask="url(#mask-6)"/></g><path d="M62.7233427,0.210392283 C62.4304803,0.214522407 62.1725225,0.28097986 61.9507758,0.411266506 C61.7336955,0.544932345 61.5647723,0.723841817 61.4449395,0.942550668 C61.3204403,1.16576511 61.2586574,1.4109443 61.2586574,1.68334477 C61.2586574,1.94635859 61.3204403,2.1842162 61.4361667,2.40311278 C61.5511465,2.62088297 61.7159632,2.79547458 61.9240841,2.92895269 C62.1374313,3.0584884 62.3858697,3.12569679 62.6705192,3.13001464 C62.9900733,3.12569679 63.2609104,3.0584884 63.4826571,2.92895269 C63.7045904,2.79547458 63.872767,2.62088297 63.9884933,2.40311278 C64.1040331,2.1842162 64.1611496,1.94635859 64.1611496,1.68334477 C64.1611496,1.4109443 64.0999267,1.16576511 63.983827,0.942550668 C63.8688472,0.723841817 63.7002973,0.544932345 63.4863902,0.411266506 C63.2739763,0.28097986 63.0165784,0.214522407 62.7233427,0.210392283" fill="#165781" id="Fill-19"/></g></g></g></g></g></g></svg>