<?xml version="1.0" ?><svg height="72px" version="1.1" viewBox="0 0 100 72" width="100px" xmlns="http://www.w3.org/2000/svg" xmlns:xlink="http://www.w3.org/1999/xlink"><title/><desc/><defs><rect height="71.4285714" id="path-1" rx="6.63157895" width="100" x="0" y="0"/><polygon id="path-3" points="27.7376374 9.21436189 55.196058 9.21436189 55.196058 0.336836118 0.279216727 0.336836118 0.279216727 9.21436189"/></defs><g fill="none" fill-rule="evenodd" id="Content" stroke="none" stroke-width="1"><g id="Indonesian-Bank-Icons" transform="translate(-370.000000, -755.000000)"><g id="Bank-BTN" transform="translate(370.000000, 755.000000)"><mask fill="white" id="mask-2"><use xlink:href="#path-1"/></mask><use fill="#FEF200" id="Background" xlink:href="#path-1"/><g id="Logo-Bank-BTN" mask="url(#mask-2)"><g transform="translate(8.571429, 20.000000)"><g id="BTN" transform="translate(27.142857, 2.857143)"><path d="M8.85884705,4.85715505 L11.5951845,4.85715505 C12.5429379,4.85715505 13.2460551,5.05236301 13.2460551,6.10382408 C13.2460551,7.18258697 12.1791982,7.49758164 11.3326152,7.49758164 L8.32321923,7.49758164 L8.85884705,4.85715505 Z M0.938796236,18.1278838 L10.8683819,18.1278838 C14.65635,18.1278838 17.999033,16.4614494 17.999033,12.2535575 C17.999033,10.6427505 16.9836072,9.09883297 15.3790922,8.75551267 L15.3790922,8.70875832 L15.4034543,8.70875832 C17.4908126,8.14907115 18.5803398,6.70241633 18.5803398,4.50393784 C18.5803398,1.98056777 17.1744436,0.661548931 13.4159131,0.661548931 L4.52780717,0.661548931 L0.938796236,18.1278838 Z M7.66747272,10.7519577 L10.5990453,10.7519577 C11.7166566,10.7519577 12.6671169,10.947507 12.6671169,12.2484384 C12.6671169,13.6643787 11.3586691,14.0042862 10.4078705,14.0042862 L6.98702576,14.0042862 L7.66747272,10.7519577 Z" fill="#0069AC" id="Fill-10"/><polygon fill="#0069AC" id="Fill-12" points="22.5463542 18.1273036 27.8772552 18.1273036 30.5472736 5.1347121 35.348299 5.1347121 36.2737204 0.661651313 21.3309561 0.661651313 20.4112869 5.1347121 25.2126506 5.1347121"/><polygon fill="#0069AC" id="Fill-14" points="34.5704375 18.1273036 39.6384309 18.1273036 41.6499959 8.3430164 41.6970283 8.3430164 44.8735753 18.1273036 50.1121034 18.1273036 53.7528838 0.661651313 48.6801534 0.661651313 46.7409979 10.2012461 46.695319 10.2012461 43.4456856 0.661651313 38.1557264 0.661651313"/></g><g id="Red-Stroke" transform="translate(25.827381, 23.817453)"><mask fill="white" id="mask-4"><use xlink:href="#path-3"/></mask><g id="Clip-17"/><path d="M0.279216727,9.21436189 C0.439262185,8.61952364 0.3732815,8.62293637 0.767135439,7.0196374 C1.05034484,5.43852115 2.77633191,3.01821543 5.81854906,2.76942766 C6.85529173,2.64418059 46.6846172,0.93815855 55.1961257,0.336836118 L54.9403236,1.82103093 C46.9221477,2.86669037 10.641568,7.82811234 0.279216727,9.21436189" fill="#E31C24" id="Fill-16" mask="url(#mask-4)"/></g><g id="Logogram"><polygon fill="#0069AC" id="Fill-23" points="0.513129584 6.69266406 11.4202445 0.341238535 22.3290512 6.69266406 22.3290512 19.3961977 19.6011728 20.9868695 19.6011728 8.28367721 11.4202445 3.51746321 3.24202307 8.28367721 3.24202307 20.9868695 0.513129584 19.3961977"/><polygon fill="#A68561" id="Fill-19" points="8.69297512 20.9869378 8.69297512 24.1590672 11.4195001 22.5707842 14.1473785 24.1590672 14.1473785 20.9869378 11.4195001 19.3962659"/><polygon fill="#A68561" id="Fill-21" points="19.5993794 20.9869378 19.5993794 17.8066178 11.4184511 13.043134 3.24293665 17.8066178 3.24293665 20.9869378 11.4184511 16.2183349"/><polygon fill="#0069AC" id="Fill-26" points="11.4185527 6.69266406 16.872956 9.87025382 16.872956 22.5713985 14.1474461 24.1572926 14.1474461 11.4554653 11.4185527 9.87025382 8.69371952 11.4554653 8.69371952 24.1572926 5.96922475 22.5713985 5.96922475 9.87025382"/></g></g></g></g></g></g></svg>