<?xml version="1.0" ?><svg height="72px" version="1.1" viewBox="0 0 100 72" width="100px" xmlns="http://www.w3.org/2000/svg" xmlns:xlink="http://www.w3.org/1999/xlink"><title/><desc/><defs><rect height="71.4285714" id="path-1" rx="6.63157895" width="100" x="0" y="0"/></defs><g fill="none" fill-rule="evenodd" id="Content" stroke="none" stroke-width="1"><g id="Indonesian-Bank-Icons" transform="translate(-370.000000, -887.000000)"><g id="UOB" transform="translate(370.000000, 887.000000)"><mask fill="white" id="mask-2"><use xlink:href="#path-1"/></mask><use fill="#123274" id="Background" xlink:href="#path-1"/><g id="Logo-UOB" mask="url(#mask-2)"><g transform="translate(11.428571, 25.714286)"><g id="Logogram"><path d="M16.3580447,21.9537582 C16.3510215,22.5058462 17.0471907,22.5656264 17.4690184,22.5656264 L17.6959537,22.5656264 C17.7372147,22.5656264 17.7705746,22.5643077 17.8201756,22.5585934 C18.8157063,22.5071648 18.8082442,22.1313407 18.8082442,21.9537582 C18.8051716,21.8601319 18.8051716,21.7625495 18.8082442,21.6526593 L18.8082442,1.0552967 C18.8157063,0.504967033 18.1160255,0.439472527 17.6959537,0.439472527 L17.4690184,0.439472527 C17.0471907,0.439472527 16.3510215,0.504967033 16.3580447,1.0552967 C16.3580447,1.17221978 16.3545331,1.28342857 16.3545331,1.39991209 L16.3545331,21.6065055 C16.3545331,21.6174945 16.3545331,21.6333187 16.3580447,21.6636484" fill="#E2051D" id="Fill-1"/><path d="M3.2901676,21.9537582 C3.28270551,22.5058462 3.97975259,22.5656264 4.40070231,22.5656264 L4.62719872,22.5656264 C4.66889864,22.5656264 4.70269753,22.5643077 4.75185954,22.5585934 C5.74739026,22.5071648 5.73992817,22.1313407 5.73992817,21.9537582 C5.73773344,21.8601319 5.73773344,21.7625495 5.73992817,21.6526593 L5.73992817,1.0552967 C5.74739026,0.504967033 5.0477095,0.439472527 4.62719872,0.439472527 L4.40070231,0.439472527 C3.97975259,0.439472527 3.28270551,0.504967033 3.2901676,1.0552967 C3.2901676,1.17221978 3.28533919,1.28342857 3.28533919,1.39991209 L3.28533919,21.6065055 C3.28533919,21.6174945 3.28533919,21.6333187 3.2901676,21.6636484" fill="#E2051D" id="Fill-4"/><path d="M7.64535116,21.9537582 C7.6400838,22.5058462 8.3353751,22.5656264 8.75720271,22.5656264 L8.98369912,22.5656264 C9.02539904,22.5656264 9.05919792,22.5643077 9.10879888,22.5585934 C10.1038907,22.5071648 10.0968675,22.1313407 10.0968675,21.9537582 C10.0924781,21.8601319 10.0924781,21.7625495 10.0968675,21.6526593 L10.0968675,1.0552967 C10.1038907,0.504967033 9.4042099,0.439472527 8.98369912,0.439472527 L8.75720271,0.439472527 C8.3353751,0.439472527 7.6400838,0.504967033 7.64535116,1.0552967 C7.64535116,1.17221978 7.64271748,1.28342857 7.64271748,1.39991209 L7.64271748,21.6065055 C7.64271748,21.6174945 7.64271748,21.6333187 7.64535116,21.6636484" fill="#E2051D" id="Fill-7"/><path d="M12.0024661,21.9537582 C11.9958819,22.5058462 12.6916121,22.5656264 13.1130008,22.5656264 L13.3399362,22.5656264 C13.3811971,22.5656264 13.414996,22.5643077 13.4637191,22.5585934 C14.4601277,22.5071648 14.4513488,22.1313407 14.4513488,21.9537582 C14.449593,21.8601319 14.449593,21.7625495 14.4513488,21.6526593 L14.4513488,1.0552967 C14.4601277,0.504967033 13.759569,0.439472527 13.3399362,0.439472527 L13.1130008,0.439472527 C12.6916121,0.439472527 11.9958819,0.504967033 12.0024661,1.0552967 C12.0024661,1.17221978 11.9976377,1.28342857 11.9976377,1.39991209 L11.9976377,21.6065055 C11.9976377,21.6174945 11.9976377,21.6333187 12.0024661,21.6636484" fill="#E2051D" id="Fill-10"/><path d="M0.610179569,10.2770549 C0.0588627294,10.270022 4.38946528e-05,10.9671648 4.38946528e-05,11.3904615 L4.38946528e-05,11.6181538 C4.38946528e-05,11.6594725 0.00136073424,11.6928791 0.00531125299,11.7416703 C0.0566679968,12.7377143 0.431967279,12.7306813 0.610179569,12.7306813 C0.704114126,12.728044 0.800243416,12.728044 0.911296887,12.7306813 L21.4790144,12.7306813 C22.0290144,12.7377143 22.0935395,12.0379341 22.0935395,11.6181538 L22.0935395,11.3904615 C22.0935395,10.9671648 22.0290144,10.270022 21.4790144,10.2770549 C21.3626935,10.2770549 21.2516401,10.2730989 21.1344413,10.2730989 L0.956069433,10.2730989 C0.94509577,10.2730989 0.931927374,10.2730989 0.899884278,10.2770549" fill="#E2051D" id="Fill-13"/></g><g id="UOB" transform="translate(26.714286, 1.428571)"><path d="M25.8189226,0.632483516 C19.9445012,0.632483516 17.3253073,3.52962637 17.3253073,10.0258901 C17.3253073,16.3709451 20.0551157,19.4768791 25.6701197,19.516 L25.9440223,19.516 C31.5691221,19.4878681 34.3046369,16.3828132 34.3046369,10.0258901 C34.3046369,3.52962637 31.6876377,0.632483516 25.8189226,0.632483516 M25.8347247,16.7331429 L25.7917079,16.7331429 C22.4197207,16.7331429 21.1055148,14.8421538 21.1055148,9.99512088 C21.1055148,5.19995604 22.3661692,3.41797802 25.7574701,3.41797802 L25.8667678,3.41797802 C29.2589465,3.41797802 30.5204789,5.19995604 30.5204789,9.99512088 C30.5204789,14.8421538 29.2062729,16.7331429 25.8347247,16.7331429" fill="#FFFFFF" id="Fill-15"/><path d="M2.228751,18.0784176 C3.42005188,18.9997363 5.04064246,19.3927033 7.64886273,19.3927033 L7.81390662,19.3927033 C10.4414405,19.3927033 12.0668595,18.9997363 13.2485036,18.0797363 C14.9630287,16.7733626 15.2518555,15.2370989 15.2518555,12.2841319 L15.2549282,1.69028571 C15.256684,1.53643956 15.2601955,1.34303297 15.0890064,1.16984615 C14.8186153,0.895120879 14.2159417,0.756659341 13.2976656,0.756659341 C12.3877294,0.756659341 11.7903232,0.895120879 11.5208101,1.16808791 C11.3483041,1.34259341 11.3513767,1.53643956 11.3535714,1.69204396 L11.3540104,3.60105495 L11.3540104,12.7601758 C11.3544493,14.6036923 11.3544493,14.9874286 10.536253,15.663033 C9.7825818,16.2757802 8.64395451,16.3557802 7.73665204,16.3557802 C6.82978851,16.3557802 5.69203911,16.2757802 4.93880686,15.663033 C4.12324421,14.9931429 4.12324421,14.6155604 4.12368316,12.8010549 L4.12456105,1.69204396 C4.12763368,1.53643956 4.12982841,1.34303297 3.95776137,1.16808791 C3.68780926,0.895120879 3.08864725,0.756659341 2.17563847,0.756659341 C1.26043496,0.756659341 0.660833998,0.895120879 0.391759777,1.16896703 C0.218814844,1.34303297 0.22188747,1.53643956 0.223643256,1.69116484 L0.224521149,1.73643956 L0.224521149,12.2841319 C0.224521149,15.2353407 0.513786911,16.772044 2.228751,18.0784176" fill="#FFFFFF" id="Fill-17"/><path d="M48.9735714,1.85652747 C48.0034996,1.13432967 46.8455587,0.878065934 44.5494294,0.878065934 L36.9969154,0.878065934 C36.6536592,0.878065934 36.3744892,1.15674725 36.3744892,1.49916484 L36.3744892,18.6455385 C36.3744892,18.9914725 36.6536592,19.2705934 36.9969154,19.2705934 L44.9199002,19.2705934 C47.0702993,19.2705934 48.5741301,19.2015824 49.822494,18.2587253 C51.2236113,17.1708132 51.5185834,15.3888352 51.5185834,14.0855385 C51.5185834,12.3642198 50.9413687,11.0011429 49.8940423,10.2486154 C49.4397326,9.90971429 48.9024621,9.7061978 48.3910894,9.52641758 L48.0487111,9.40597802 L48.3761652,9.24905495 C49.9186233,8.51147253 50.4835475,7.48597802 50.4594054,5.46443956 C50.4457981,4.51894505 50.2351038,2.79103297 48.9735714,1.85652747 L48.9735714,1.85652747 Z M40.2200998,3.44905495 L44.4388148,3.44905495 C46.6234517,3.44905495 46.7968356,4.55762637 46.7968356,6.00773626 C46.7968356,7.74092308 46.0032203,8.47938462 44.1455986,8.47938462 L40.2200998,8.47938462 L40.2200998,3.44905495 Z M44.3523424,16.6367473 L40.2170271,16.6367473 L40.2170271,11.0881758 L44.6521429,11.0881758 C47.1111213,11.0881758 47.6053751,12.1593846 47.6053751,13.8903736 C47.6053751,16.2213626 46.7533799,16.6367473 44.3523424,16.6367473 L44.3523424,16.6367473 Z" fill="#FFFFFF" id="Fill-19"/></g></g></g></g></g></g></svg>