<?xml version="1.0" ?><svg height="72px" version="1.1" viewBox="0 0 100 72" width="100px" xmlns="http://www.w3.org/2000/svg" xmlns:xlink="http://www.w3.org/1999/xlink"><title/><desc/><defs><rect height="71.4285714" id="path-1" rx="6.63157895" width="100" x="0" y="0"/></defs><g fill="none" fill-rule="evenodd" id="Content" stroke="none" stroke-width="1"><g id="Indonesian-Bank-Icons" transform="translate(-530.000000, -1019.000000)"><g id="Permata" transform="translate(530.000000, 1019.000000)"><mask fill="white" id="mask-2"><use xlink:href="#path-1"/></mask><use fill="#FFFFFF" id="Background" xlink:href="#path-1"/><g id="Logogram" mask="url(#mask-2)"><g transform="translate(35.714286, 10.000000)"><polygon fill="#0096B8" id="Fill-1" points="0.0336263736 10.270546 3.13971743e-05 10.9205884 12.5755416 25.5420311 13.0273469 25.6139123 13.0841758 25.5855955 13.304898 25.1816917 7.94163265 7.38969731 7.03142857 6.78166337"/><polygon fill="#005675" id="Fill-2" points="12.575416 25.5420311 13.0265934 25.6139123 3.75281005 11.6303762 -9.41915225e-05 10.9205884"/><polygon fill="#0BBBEF" id="Fill-3" points="7.03155416 6.78160113 3.8255887 10.5222235 5.13485086 11.0894936 7.94175824 7.39025743 7.94175824 7.38963508"/><polygon fill="#007290" id="Fill-4" points="5.13362637 11.0895559 13.0843328 25.5855955 13.3050549 25.180447 7.94241758 7.39094201"/><polygon fill="#81B73E" id="Fill-5" points="19.506405 6.81968883 14.1280691 30.8805941 14.317708 31.3321075 14.4078179 31.3722489 15.0169231 31.2141726 28.3616641 11.1795474 28.3469074 10.134314 20.2147253 6.42885431"/><polygon fill="#69931D" id="Fill-6" points="22.9444898 11.6372221 14.408854 31.3721867 15.0163893 31.2141103 28.3617582 11.1794851"/><polygon fill="#277933" id="Fill-7" points="14.1275981 30.8793494 14.317865 31.3308628 21.4092308 10.799604 19.5059341 6.82031117"/><polygon fill="#AECC53" id="Fill-8" points="28.3461852 10.1349986 22.637237 10.2081245 22.9449294 11.6376577 28.3615699 11.1796096 28.3468132 10.1349986"/><polygon fill="#69931D" id="Fill-9" points="19.506405 6.81959547 21.4078179 10.7982659 22.6373312 10.2082801 20.2147253 6.42969448"/><polygon fill="#E4032E" id="Fill-10" points="18.5284144 3.11173974e-05 8.11836735 0.111120226 7.79372057 0.728800566 13.5456829 17.1600311 13.8872841 17.3878105 13.8973312 17.3893663 14.2141287 17.2079519 19.2012559 0.691459689"/><polygon fill="#791B15" id="Fill-11" points="7.79378336 0.728738331 13.5457457 17.1599689 13.8854631 17.3880594 11.8276923 2.71807355 7.79378336 0.728115983"/><polygon fill="#B51227" id="Fill-12" points="13.7847096 2.72068741 13.8971115 17.3891174 14.2139089 17.2064583 19.2007221 0.691521924"/></g></g><g fill="#000000" id="PermataBank" mask="url(#mask-2)"><g transform="translate(7.142857, 44.285714)"><path d="M55.2836167,10.0536871 C55.2919033,9.88144218 55.3017436,9.60661224 55.3100302,9.23110204 L55.3100302,2.00497959 L55.28776,1.30402721 C55.282322,1.15545578 55.2755891,1.05423129 55.2683384,1.00008163 C55.2610876,0.943755102 55.2496936,0.895591837 55.2341562,0.851782313 C55.1821062,0.673823129 55.0681657,0.547836735 54.8969961,0.47137415 C54.7385153,0.401442177 54.5039016,0.36770068 54.2001467,0.36552381 L54.2001467,0.120353741 L58.1269486,0.118993197 C58.6982046,0.121442177 59.2135261,0.159809524 59.6736901,0.23844898 C60.1341131,0.314911565 60.5046785,0.421578231 60.7884937,0.557904762 C61.6088649,0.967428571 62.0146483,1.65640816 62.0099871,2.63491156 C62.0200863,4.036 61.1435218,4.92933333 59.3290203,5.16008163 L59.0247475,5.21178231 C59.4328615,5.22756463 59.9841778,5.36933333 60.2413207,5.43246259 C60.4961329,5.49423129 60.7457661,5.59219048 60.990997,5.72606803 C61.9535347,6.23463946 62.4279413,7.04688435 62.4183599,8.17232653 C62.4230211,9.53722449 61.7898748,10.4237551 60.5041606,10.8433469 C60.2237117,10.9279728 59.8710142,10.9940952 59.4455503,11.0428027 C59.0180147,11.0912381 58.5550022,11.1157279 58.0541821,11.1168163 L54.2001467,11.1168163 L54.2001467,10.8705578 C54.6543548,10.8645714 54.9663962,10.7916463 55.1046785,10.6207619 C55.1619076,10.5633469 55.2030816,10.4991293 55.2300129,10.425932 C55.2577212,10.3519184 55.2745533,10.2245714 55.2836167,10.0536871 L55.2836167,10.0536871 Z M56.4924212,0.457768707 L56.4924212,5.04307483 L58.0249202,5.04307483 C59.8067933,5.03191837 60.7297108,4.2545034 60.7392922,2.69695238 C60.751981,1.18457143 59.7798619,0.446612245 57.8936297,0.457768707 L56.4924212,0.457768707 Z M61.0466724,8.04851701 C61.0357963,6.9807619 60.6685973,6.22457143 59.9352352,5.80144218 C59.7122745,5.68307483 59.429754,5.59110204 59.0897454,5.52552381 C58.7507726,5.4604898 58.3758049,5.42783673 57.9663962,5.4267483 L56.4924212,5.4267483 L56.4924212,10.7794014 L57.9663962,10.7794014 C59.0343289,10.7840272 59.8150798,10.5745034 60.2959603,10.1358639 C60.5391196,9.92416327 60.7242728,9.63926531 60.8527147,9.28035374 C60.9806388,8.92171429 61.0443418,8.5097415 61.0466724,8.04851701 L61.0466724,8.04851701 Z" id="Fill-1"/><path d="M68.0389383,10.8030476 C67.95918,10.6376054 67.9029866,10.4405986 67.8794217,9.93638095 L67.871912,9.78808163 L67.7776521,9.90073469 C67.6652654,10.0321633 67.5549504,10.1491701 67.4480017,10.2471293 C67.3392404,10.3459048 67.213129,10.4474014 67.0722572,10.5497143 C66.7625464,10.7894422 66.4637117,10.9581497 66.1775658,11.0561088 C65.890902,11.154068 65.5685024,11.201415 65.2088131,11.1978776 C64.5823997,11.201415 64.1015192,11.0449524 63.7578852,10.7377415 C63.5662581,10.556517 63.4147691,10.3282177 63.3039361,10.0512109 C63.1946569,9.77447619 63.1379456,9.47760544 63.135615,9.15787755 C63.1423479,7.9810068 63.8296159,7.22263946 65.2362624,6.88604082 C65.6081226,6.79515646 66.0012171,6.72059864 66.4147691,6.66318367 C66.828839,6.60468027 67.2996202,6.55651701 67.824782,6.5192381 L67.8794217,5.49311565 C67.8794217,5.14209524 67.8638843,4.85719728 67.8312559,4.64114286 C67.7986275,4.42209524 67.7445058,4.23080272 67.6683729,4.06971429 C67.4601726,3.64223129 67.0344497,3.43760544 66.4199482,3.43760544 C65.4335865,3.43161905 64.8993612,3.92576871 64.8436858,4.90563265 C64.8385067,5.06209524 64.8245231,5.17257143 64.8045835,5.23760544 C64.7859387,5.30073469 64.7538282,5.34672109 64.70877,5.38046259 C64.6103669,5.45039456 64.4539577,5.48985034 64.2302201,5.49311565 C63.7462322,5.49991837 63.5652223,5.34917007 63.5732499,5.0947483 C63.5763574,4.82917007 63.6605179,4.5717551 63.8285801,4.32386395 C63.997937,4.07515646 64.2328097,3.85828571 64.5365645,3.67488435 C65.0824428,3.35651701 65.7816228,3.19434014 66.6390246,3.19080272 C67.5774795,3.19434014 68.2067415,3.41692517 68.5503755,3.84468027 C68.6896936,4.02372789 68.7927579,4.24631293 68.8593095,4.51542857 C68.9266379,4.78318367 68.9605611,5.12413605 68.9600432,5.53801361 L68.9587484,5.62481633 L68.9512387,6.02644898 L68.9307812,7.08658503 L68.9160207,8.54345578 L68.9015192,9.24903401 C68.9030729,9.5810068 68.9160207,9.83406803 68.9385498,10.1176054 C68.9595252,10.3932517 69.0535261,10.701551 69.263798,10.7826395 C69.4823565,10.8680816 69.6934053,10.9018231 70.0947864,10.9042721 C70.3894778,10.8988299 70.6163228,10.8626395 70.7701424,10.794068 C70.9451964,10.716517 71.0534398,10.5497143 71.1003107,10.3135238 C71.145369,10.0838639 71.1645317,9.73284354 71.1603884,9.26372789 L71.1603884,5.15107483 C71.1699698,4.59080272 71.1080794,4.19706122 70.9565904,3.99107483 C70.8079499,3.79080272 70.5319033,3.704 70.1527924,3.70862585 L70.1527924,3.48903401 L72.2410099,3.33039456 L72.2410099,5.07787755 L72.3497713,4.8732517 C72.6584463,4.29583673 73.0090721,3.88631293 73.399836,3.64114286 C73.789823,3.39570068 74.2787311,3.27297959 74.867596,3.28005442 C75.7537419,3.26644898 76.3697972,3.57801361 76.7305222,4.20141497 C76.8633664,4.41066667 76.95918,4.66155102 77.0166681,4.95651701 C77.0738973,5.25121088 77.1034182,5.62726531 77.1010876,6.08604082 L77.1010876,9.26372789 C77.0959085,9.73746939 77.1145533,10.0906667 77.1580578,10.3203265 C77.2031161,10.556517 77.3090289,10.7219592 77.4851187,10.7973333 C77.6311696,10.861551 77.9704014,10.8952925 78.2593958,10.9029116 C78.5307812,10.8952925 78.7400173,10.859102 78.8837376,10.794068 C79.0543893,10.7151565 79.1582305,10.5486259 79.201994,10.3135238 C79.2447216,10.0830476 79.2633664,9.73284354 79.2576694,9.26372789 L79.2576694,1.79243537 C79.2633664,1.36386395 79.2460164,1.04658503 79.2053604,0.841687075 C79.1626327,0.627537415 79.0577557,0.481414966 78.8863271,0.417197279 C78.7374277,0.362231293 78.514208,0.336380952 78.2213293,0.335020408 L78.2213293,0.117061224 L80.3929305,5.44217687e-05 C80.3657402,0.507265306 80.3452827,1.02481633 80.3307812,1.55488435 C80.3167976,2.10726531 80.3095468,2.58998639 80.3095468,3.00304762 L80.3095468,8.02236735 L82.7015192,5.26808163 C83.0399741,4.87434014 83.2253863,4.54345578 83.2282348,4.27814966 C83.2450669,3.90889796 82.8910747,3.74236735 82.3084247,3.71189116 L82.3084247,3.49365986 L85.4177039,3.49365986 L85.4177039,3.71515646 C85.230997,3.7377415 85.0686319,3.77393197 84.9300906,3.82345578 C84.7798964,3.87733333 84.6258179,3.95488435 84.4683729,4.05502041 C84.3088563,4.1562449 84.1744584,4.24985034 84.0664739,4.33420408 C83.9561588,4.42073469 83.8259042,4.54454422 83.6767458,4.70427211 C83.5273284,4.86427211 83.3098058,5.10617687 83.0249547,5.43134694 L82.2356582,6.32468027 L84.3023824,9.74209524 C84.5385498,10.1469932 84.7555546,10.4327075 84.9549504,10.5946122 C85.1452827,10.7502585 85.388183,10.8501224 85.6805438,10.8974694 L85.6805438,11.1203265 L83.7899094,11.1203265 C83.7381183,11.0101224 83.6663876,10.8659048 83.5752352,10.6893061 L83.2745878,10.1121633 L83.0441174,9.67760544 L81.5149849,7.05828571 L80.3126543,8.47270748 L80.3095468,9.26372789 C80.3038498,9.73284354 80.3222356,10.0838639 80.3657402,10.3135238 C80.4100216,10.5497143 80.5151575,10.7151565 80.6886577,10.794068 C80.8406647,10.8626395 81.065956,10.8988299 81.3596116,10.9042721 L81.3596116,11.1203265 L74.9698835,11.1203265 L74.9698835,10.9042721 C75.4025982,10.8917551 75.7001381,10.8177415 75.8189987,10.6509388 C75.8666465,10.5869932 75.9029003,10.5137959 75.9287959,10.431619 C75.9536556,10.3494422 75.9694519,10.2425034 75.9767026,10.1121633 C75.9852482,10.0095782 75.9940527,9.8610068 76.003634,9.66644898 C76.0145101,9.47080272 76.0196893,9.33665306 76.0207251,9.26481633 L76.0207251,6.17828571 C76.0235736,5.4177415 75.9458869,4.85420408 75.7819681,4.49610884 C75.5323349,3.93257143 75.0827881,3.65012245 74.4449806,3.64767347 C73.7333707,3.6454966 73.166517,4.00114286 72.7462322,4.70427211 C72.5877514,4.97012245 72.4647475,5.27270748 72.3756668,5.61012245 C72.2878809,5.94753741 72.2417868,6.28087075 72.2410099,6.60712925 L72.2410099,9.26372789 C72.2355719,9.73746939 72.2542167,10.0906667 72.2974622,10.3203265 C72.3425205,10.556517 72.4484333,10.7219592 72.624782,10.7973333 C72.7788606,10.8648163 73.0075183,10.8988299 73.306353,10.9042721 L73.306353,11.1203265 L70.1634096,11.1203265 C69.8850324,11.1303946 69.3533966,11.1450884 69.0905568,11.141551 C68.8142512,11.1371973 68.681407,11.1067211 68.4299612,11.086585 C68.2067415,11.0177415 68.1127406,10.9570612 68.0389383,10.8030476 M64.3330255,9.11161905 C64.3382046,9.61257143 64.4539577,10.0185578 64.685205,10.3246803 C64.9169702,10.6329796 65.2300475,10.791619 65.6169271,10.7984218 C66.007691,10.7929796 66.3777385,10.6857687 66.7224083,10.478966 C67.0670781,10.2708027 67.3392404,9.99270748 67.5357877,9.6484898 C67.6556841,9.42889796 67.743211,9.14672109 67.7978507,8.80331973 C67.8524903,8.46345578 67.8794217,8.0395102 67.8794217,7.53202721 L67.8794217,6.74427211 C67.1792059,6.8084898 66.6783858,6.87814966 66.3150712,6.9592381 C65.9483902,7.04032653 65.6249547,7.1562449 65.3426931,7.30917007 C64.6740699,7.65801361 64.3382046,8.26345578 64.3330255,9.11161905" id="Fill-3"/><path d="M2.84649115,6.48783673 L2.84649115,9.22334694 C2.84105309,9.66198639 2.86513595,9.9882449 2.91822184,10.201034 C2.97208459,10.413551 3.08757877,10.5542313 3.26651705,10.6228027 C3.44467846,10.6913741 3.7194303,10.731102 4.08895986,10.7376327 L4.08895986,11.1202177 L5.17911092e-05,11.1202177 L5.17911092e-05,10.7376327 C0.348088045,10.731102 0.605748813,10.6913741 0.773810962,10.6228027 C0.94083729,10.5542313 1.04882175,10.413551 1.09828226,10.201034 C1.14722486,9.9882449 1.16975399,9.66198639 1.16457488,9.22334694 L1.16457488,2.03096599 C1.16923608,1.59205442 1.14774277,1.26579592 1.10035391,1.0530068 C1.05270609,0.839129252 0.948347,0.697632653 0.788830384,0.626612245 C0.628795857,0.555591837 0.383047044,0.514231293 0.0515839448,0.501714286 L0.0515839448,0.119129252 L3.94627536,0.119129252 C5.25917997,0.113414966 6.22119983,0.356680272 6.831817,0.849197279 C7.44269314,1.3422585 7.7446353,2.1174966 7.73738455,3.17872109 C7.74204575,4.66851701 7.18969357,5.6437551 6.08110488,6.1052517 C5.79211049,6.22334694 5.42335779,6.31668027 4.97562365,6.38416327 C4.52685369,6.45164626 4.02862322,6.4867483 3.48041433,6.48783673 L2.84649115,6.48783673 Z M2.84649115,6.06144218 L3.51977557,6.06144218 C4.32849374,6.05790476 4.92331463,5.85790476 5.30527406,5.45817687 C5.51269745,5.22742857 5.66988347,4.9237551 5.77760898,4.54906122 C5.88429866,4.17545578 5.93867933,3.74797279 5.93919724,3.26634014 C5.93505395,1.45491156 5.17968062,0.547972789 3.6751489,0.54552381 L2.84649115,0.54552381 L2.84649115,6.06144218 Z" id="Fill-5"/><path d="M14.3201899,6.94914286 L9.56317652,6.94914286 C9.56783772,7.48247619 9.59761761,7.93009524 9.65199827,8.29145578 C9.70611998,8.65172789 9.793388,8.9812517 9.91302546,9.28029932 C10.3081916,10.2481905 10.9185498,10.732 11.744618,10.732 C12.2122918,10.7287347 12.636202,10.584517 13.0171256,10.2977143 C13.3972723,10.0109116 13.713975,9.59785034 13.9659387,9.0612517 L14.3028399,9.29526531 C13.9716357,9.98832653 13.5668882,10.496898 13.0891152,10.822068 C12.6113423,11.1461497 12.0286923,11.3072381 11.3401295,11.3037007 C10.2574363,11.2890068 9.26123435,10.9254694 8.6376694,10.2133605 C8.01358653,9.50097959 7.69558912,8.52438095 7.68315926,7.28655782 C7.69558912,6.03866667 8.00322831,5.052 8.60581787,4.32492517 C9.20788951,3.59839456 10.1693915,3.22696599 11.2057315,3.21118367 C11.8948123,3.21254422 12.560328,3.37771429 13.0326629,3.70642177 C13.5049978,4.03376871 13.8532931,4.51431293 14.0778075,5.14669388 C14.1510919,5.35594558 14.2070263,5.59540136 14.2445749,5.86696599 C14.2823824,6.13689796 14.30776,6.49798639 14.3201899,6.94914286 M9.57638325,6.52492517 L12.5523004,6.52492517 C12.5401295,6.07240816 12.5173414,5.70805442 12.4831593,5.43240816 C12.449754,5.15540136 12.3958912,4.90914286 12.3236426,4.692 C12.0719379,3.92247619 11.6860941,3.54097959 11.1655934,3.5475102 C10.5816487,3.5534966 10.1463444,3.98315646 9.85916271,4.83812245 C9.78561934,5.05989116 9.72709538,5.30288435 9.68203712,5.56628571 C9.63749676,5.82968707 9.60201985,6.14914286 9.57638325,6.52492517" id="Fill-7"/><path d="M14.6245404,3.4204898 L17.2632974,3.22919728 C17.2775399,3.50620408 17.2878981,3.73776871 17.2951489,3.92579592 C17.3023997,4.11491156 17.3057661,4.28008163 17.3057661,4.42429932 L17.3057661,4.86647619 C17.8790937,3.76497959 18.5715408,3.20906122 19.3831075,3.20008163 C19.7337333,3.20688435 20.0188433,3.31463946 20.2374018,3.52171429 C20.4564782,3.72987755 20.5693828,3.99654422 20.5758567,4.32089796 C20.5709366,4.59082993 20.4761588,4.80688435 20.2917825,4.96987755 C20.1076651,5.13178231 19.8652827,5.21640816 19.5656711,5.21967347 C19.205205,5.23191837 18.9853517,5.07572789 18.9058524,4.74838095 C18.8538023,4.54565986 18.8001985,4.40851701 18.7442641,4.33531973 C18.6888476,4.26212245 18.6072767,4.22838095 18.4985153,4.23191837 L18.4708071,4.23191837 C18.1945015,4.25640816 17.9326975,4.48715646 17.6843591,4.92606803 C17.5724903,5.14429932 17.4883297,5.38511565 17.4321364,5.64933333 C17.375943,5.91382313 17.3479758,6.21885714 17.3479758,6.56334694 L17.3479758,9.29178231 C17.3422788,9.72742857 17.3627363,10.0479728 17.4083125,10.2550476 C17.4536297,10.4607619 17.5572119,10.5957279 17.7177644,10.6602177 C17.8790937,10.7230748 18.1295037,10.7589932 18.4708071,10.7668844 L18.4708071,11.1203537 L14.568606,11.1203537 L14.568606,10.7668844 C14.8866034,10.7679728 15.1225119,10.7355918 15.2752956,10.6691973 C15.4291152,10.6028027 15.5280363,10.4642993 15.5736124,10.2550476 C15.6197065,10.0433469 15.639905,9.72280272 15.6357618,9.29178231 L15.6357618,5.2052517 C15.6481916,4.59736054 15.5907035,4.20253061 15.4617436,4.02021769 C15.3327838,3.83790476 15.0538886,3.75572789 14.6245404,3.77504762 L14.6245404,3.4204898 Z" id="Fill-9"/><path d="M23.7110056,3.22917007 L23.7252482,4.68957823 C24.2936556,3.70644898 25.1078118,3.21012245 26.1677169,3.20005442 C27.2454899,3.1932517 27.9102287,3.70862585 28.1606388,4.74944218 C28.4651705,4.21257143 28.8137246,3.81991837 29.2044886,3.57121088 C29.5952525,3.32032653 30.0520501,3.19651701 30.5746224,3.20005442 C31.4006905,3.20440816 32.0089771,3.49039456 32.399741,4.05502041 C32.5520069,4.26998639 32.6612861,4.53093878 32.7257661,4.84059864 C32.7910229,5.15080272 32.8226155,5.55270748 32.8208028,6.04685714 L32.8208028,9.2917551 C32.8158826,9.72277551 32.8365991,10.0433197 32.8821752,10.2536599 C32.9277514,10.4642721 33.0274493,10.6027755 33.1802331,10.6691701 C33.3340527,10.7355646 33.5697022,10.7679456 33.8876996,10.7657687 L33.8876996,11.1203265 L30.0833837,11.1203265 L30.0833837,10.7657687 C30.3876565,10.7679456 30.6134657,10.7355646 30.7608114,10.6691701 C30.9084161,10.6027755 31.0044886,10.4642721 31.0479931,10.2536599 C31.0930514,10.0433197 31.112732,9.72277551 31.1085887,9.2917551 L31.1085887,6.06127891 C31.1119551,5.28631293 31.0208028,4.72685714 30.8366854,4.38372789 C30.6520501,4.0395102 30.3542512,3.87161905 29.9430298,3.87842177 C29.4494605,3.86835374 29.032801,4.13855782 28.6940872,4.68957823 C28.4019853,5.14889796 28.2564523,5.64631293 28.258524,6.17964626 L28.258524,9.2917551 C28.2543807,9.72277551 28.2743202,10.0433197 28.3188606,10.2536599 C28.3639189,10.4642721 28.4610272,10.6027755 28.6101856,10.6691701 C28.7598619,10.7355646 28.9885196,10.7679456 29.2977126,10.7657687 L29.2977126,11.1203265 L25.5356064,11.1203265 L25.5356064,10.7657687 C25.8396202,10.7679456 26.0656884,10.7355646 26.2132931,10.6691701 C26.3606388,10.6027755 26.4564523,10.4642721 26.5002158,10.2536599 C26.5447562,10.0433197 26.5652136,9.72277551 26.5600345,9.2917551 L26.5600345,6.04685714 C26.5672853,4.58617687 26.1884333,3.86372789 25.4232197,3.87842177 C24.9472594,3.89638095 24.5479499,4.13393197 24.2268451,4.58971429 C23.9049633,5.04658503 23.737678,5.61583673 23.7252482,6.29746939 L23.7252482,9.2917551 C23.7208459,9.72740136 23.7405265,10.0512109 23.7850669,10.2607347 C23.8293483,10.4708027 23.9249029,10.6082177 24.0722486,10.6724354 C24.2198533,10.7366531 24.4454035,10.7679456 24.7499353,10.7657687 L24.7499353,11.1203265 L20.9456193,11.1203265 L20.9456193,10.7657687 C21.2641347,10.7679456 21.4990073,10.7366531 21.6528269,10.6724354 C21.8058697,10.6082177 21.9055675,10.4708027 21.9511437,10.2607347 C21.9969789,10.0512109 22.0174363,9.72740136 22.0122572,9.2917551 L22.0122572,5.19161905 C22.0272767,4.59080272 21.9697885,4.2025034 21.8403107,4.02481633 C21.7113509,3.84604082 21.4226155,3.76386395 20.9741044,3.77502041 L20.9741044,3.42046259 L23.7110056,3.22917007 Z" id="Fill-11"/><path d="M43.8673025,3.90438095 L43.8673025,8.83063946 C43.8667846,9.15118367 43.8781787,9.4167619 43.9007078,9.62710204 C43.9232369,9.83744218 43.9589728,10.0140408 44.0076565,10.1579864 C44.0666983,10.3226122 44.1588865,10.4540408 44.2826672,10.5533605 C44.4072249,10.6510476 44.5449892,10.7016599 44.6949245,10.7038367 C44.9950539,10.699483 45.3223738,10.5462857 45.6781787,10.2472381 L45.874467,10.6148571 C45.3107208,11.1122721 44.6700647,11.3577143 43.9517221,11.3530884 C43.1769271,11.3408435 42.6486577,11.069551 42.3651014,10.541932 C42.3096849,10.4249252 42.2664394,10.2921361 42.2356237,10.1413878 C42.2055848,9.99172789 42.1838325,9.79036735 42.1719206,9.53485714 C42.1600086,9.28043537 42.1540527,8.93730612 42.1545706,8.50628571 L42.1545706,3.90438095 L41.3546569,3.90438095 L41.3546569,3.46220408 C41.6607423,3.44968707 41.9194389,3.38220408 42.1320414,3.25948299 C42.3449029,3.13594558 42.5300561,2.94356463 42.6885369,2.68016327 C42.8125766,2.47989116 42.915123,2.25703401 42.9951403,2.01295238 C43.0756754,1.76859864 43.1463703,1.46492517 43.2077428,1.10138776 L43.9097713,1.02846259 C43.9004489,1.22302041 43.8919033,1.42111565 43.8859473,1.62247619 C43.8799914,1.8227483 43.8750712,2.06465306 43.8722227,2.34682993 C43.8688563,2.62927891 43.8673025,2.99172789 43.8673025,3.43172789 L45.5660509,3.43172789 L45.5660509,3.90438095 L43.8673025,3.90438095 Z" id="Fill-13"/><path d="M41.3476651,10.8086259 L41.3476651,11.1201905 C40.9372205,11.1484898 40.77123,11.1484898 40.3395511,11.1484898 C39.996953,11.1484898 39.6421839,11.1425034 39.3477514,11.0268571 C39.1657057,10.9547483 39.0641951,10.8929796 38.9282434,10.7433197 C38.8334657,10.5846803 38.773129,10.5754286 38.7428312,10.1357007 C38.3802935,10.5474014 38.0032542,10.848898 37.6114545,11.0437279 C37.2186189,11.2371973 36.7960035,11.3329796 36.3428312,11.3308027 C35.6690289,11.3229116 35.1420544,11.1280816 34.7613897,10.7444082 C34.380984,10.3607347 34.1880621,9.83311565 34.1808114,9.16236735 C34.1784808,7.89651701 34.9271213,7.10985034 36.4264739,6.80263946 C37.1028658,6.66440816 37.8698921,6.57107483 38.7288476,6.52155102 L38.7288476,5.56291156 C38.7358394,4.79529252 38.6584117,4.26331973 38.4973414,3.96726531 C38.3354942,3.67121088 38.0477946,3.52971429 37.6339836,3.54331973 C37.1940181,3.53297959 36.8806819,3.70059864 36.6934571,4.044 C36.6256107,4.16318367 36.5756323,4.29814966 36.5442987,4.45243537 C36.513224,4.60536054 36.4878464,4.81787755 36.4689426,5.09134694 C36.4578075,5.3547483 36.3853,5.54141497 36.251161,5.65189116 C36.117281,5.76318367 35.9044195,5.81706122 35.6125766,5.81488435 C34.9620803,5.80944218 34.6347605,5.58304762 34.6300993,5.1362449 C34.6321709,4.87529252 34.7090807,4.6254966 34.8603107,4.38930612 C35.0110229,4.1517551 35.2246612,3.94359184 35.5007078,3.76372789 C36.0849115,3.38576871 36.8524558,3.19882993 37.8028226,3.20345578 C38.7687268,3.19882993 39.4611739,3.40019048 39.879905,3.80862585 C40.0686836,3.99556463 40.2072249,4.23393197 40.2957877,4.52318367 C40.3846094,4.81352381 40.4281139,5.18495238 40.4270781,5.63828571 L40.4128356,6.9210068 L40.3991109,8.20372789 C40.3877169,8.62468027 40.3825378,8.88998639 40.3851273,9.00019048 C40.3799482,9.53270748 40.3960035,9.92073469 40.4327751,10.1650884 C40.4698058,10.4102585 40.5102028,10.5182857 40.6629866,10.6510748 C40.9310056,10.8121633 41.1609581,10.8075374 41.3476651,10.8086259 M38.7288476,7.9977415 L38.7288476,6.8625034 C37.7238412,6.93352381 37.0109366,7.12889796 36.5898748,7.44753741 C36.16959,7.7669932 35.9650151,8.26440816 35.9777039,8.94087075 C35.9818472,9.4717551 36.0854294,9.89270748 36.2884506,10.2042721 C36.4906949,10.5161088 36.7664825,10.6747483 37.1145188,10.6812789 C37.4001467,10.679102 37.6637635,10.5925714 37.9058869,10.421415 C38.1477514,10.251619 38.3375658,10.0129796 38.476107,9.70821769 C38.5662236,9.52155102 38.6309625,9.29406803 38.6713595,9.02386395 C38.7104618,8.75393197 38.7298835,8.41189116 38.7288476,7.9977415" id="Fill-15"/><path d="M53.433483,10.8086259 L53.433483,11.1201905 C53.0227795,11.1484898 52.8570479,11.1495782 52.425369,11.1495782 C52.0825119,11.1495782 51.7285196,11.1438639 51.4333103,11.0279456 C51.2512646,10.9561088 51.1500129,10.8951565 51.0143202,10.7433197 C50.9192836,10.5857687 50.858688,10.576517 50.8286491,10.1367891 C50.4661114,10.5474014 50.0890721,10.8499864 49.6970134,11.0448163 C49.3044368,11.2371973 48.8815624,11.334068 48.4283902,11.3318912 C47.7545878,11.3237279 47.2278722,11.1280816 46.8472076,10.7454966 C46.4668019,10.3618231 46.27388,9.83420408 46.2663703,9.16345578 C46.2642987,7.89760544 47.0129391,7.11121088 48.5122918,6.804 C49.1886836,6.6654966 49.95571,6.57216327 50.8144066,6.52263946 L50.8144066,5.564 C50.8213984,4.79665306 50.7439707,4.26440816 50.5829003,3.96726531 C50.421312,3.67121088 50.1333535,3.53080272 49.7195425,3.54440816 C49.279836,3.53434014 48.9662408,3.70195918 48.779016,4.04481633 C48.7111696,4.16427211 48.6611912,4.2992381 48.6301165,4.45352381 C48.5990419,4.60644898 48.5736642,4.81896599 48.5550194,5.09243537 C48.5436254,5.3547483 48.4711178,5.54141497 48.3367199,5.65297959 C48.2030988,5.76427211 47.9902374,5.81814966 47.6981355,5.81597279 C47.0478981,5.81053061 46.7205783,5.58440816 46.7156582,5.13760544 C46.7177298,4.87638095 46.7946396,4.62658503 46.9458697,4.39039456 C47.0965818,4.15311565 47.3104791,3.94468027 47.5862667,3.76590476 C48.1707294,3.38685714 48.9382736,3.19991837 49.8883815,3.20454422 C50.8542857,3.19991837 51.5469918,3.40127891 51.9657229,3.80971429 C52.1545015,3.99665306 52.2930427,4.23529252 52.3813466,4.52427211 C52.4699094,4.81461224 52.5139318,5.18604082 52.512637,5.63828571 L52.4986534,6.92209524 L52.4849288,8.20481633 C52.4735347,8.6254966 52.4683556,8.89107483 52.4706862,9.00127891 C52.4657661,9.53352381 52.4818213,9.92182313 52.5183341,10.1661769 C52.5556237,10.4113469 52.5957618,10.5196463 52.7488045,10.6521633 C53.0165645,10.8132517 53.246776,10.8075374 53.433483,10.8086259 M50.8144066,7.99910204 L50.8144066,6.8625034 C49.8094001,6.93461224 49.0967544,7.1302585 48.6756927,7.44862585 C48.254372,7.76835374 48.050574,8.2654966 48.0632628,8.94195918 C48.0676651,9.47311565 48.1712473,9.89379592 48.3740095,10.2053605 C48.5765127,10.5171973 48.8523004,10.6758367 49.2000777,10.6823673 C49.4859646,10.6801905 49.7495814,10.5936599 49.9917048,10.4225034 C50.2333103,10.2527075 50.4233837,10.014068 50.561407,9.70930612 C50.6520414,9.52236735 50.7167803,9.29515646 50.7566595,9.02495238 C50.7962797,8.75502041 50.8157013,8.41297959 50.8144066,7.99910204" id="Fill-17"/></g></g></g></g></g></svg>