<?xml version="1.0" ?><svg height="72px" version="1.1" viewBox="0 0 100 72" width="100px" xmlns="http://www.w3.org/2000/svg" xmlns:xlink="http://www.w3.org/1999/xlink"><title/><desc/><defs><rect height="71.4285714" id="path-1" rx="6.63157895" width="100" x="0" y="0"/></defs><g fill="none" fill-rule="evenodd" id="Content" stroke="none" stroke-width="1"><g id="Indonesian-Bank-Icons" transform="translate(-530.000000, -755.000000)"><g id="Bank-Bukopin" transform="translate(530.000000, 755.000000)"><mask fill="white" id="mask-2"><use xlink:href="#path-1"/></mask><use fill="#FFFFFF" id="Background" xlink:href="#path-1"/><g fill="#00AB4E" id="Logogram" mask="url(#mask-2)"><g transform="translate(37.142857, 11.428571)"><polygon id="Fill-1" points="10.0506122 0.952609524 15.6978622 0.952609524 15.6978622 0.000228571429 10.0506122 0.000228571429"/><polygon id="Fill-2" points="9.00477483 15.768419 9.00477483 17.5459429 0.721260482 17.5459429 0.721260482 18.0392762 25.4726812 18.0392762 25.4726812 17.5459429 16.7398125 17.5459429 16.7398125 15.768419"/><polygon id="Fill-3" points="2.13960338 20.4581333 2.13960338 20.9267048 23.9313489 20.9267048 23.9313489 20.4581333 16.7401234 20.4581333 16.7401234 18.7548952 9.00469709 18.7548952 9.00469709 20.4581333"/><polygon id="Fill-4" points="9.00477483 21.6426667 9.00477483 23.3211429 4.87545653 23.3211429 4.87545653 23.7908571 21.4914633 23.7908571 21.4914633 23.3211429 16.7398125 23.3211429 16.7398125 21.6426667"/><polygon id="Fill-5" points="10.0506122 26.7663238 15.6970848 26.7663238 15.6970848 25.8139429 10.0506122 25.8139429"/><path d="M4.87561202,2.76434286 L9.16158242,2.76434286 C10.3763165,2.25462857 11.6882292,1.95062857 13.0600041,1.95062857 C14.4636535,1.95062857 15.8086071,2.23977143 17.0489963,2.76434286 L21.4916188,2.76434286 L21.4916188,3.25767619 L4.87561202,3.25767619 L4.87561202,2.76434286 Z" id="Fill-6"/><path d="M2.13960338,5.62632381 L5.11443845,5.62632381 C5.66641359,5.0095619 6.27552983,4.45375238 6.93401286,3.9760381 L19.1971903,3.9775619 C19.8809398,4.47470476 20.5106579,4.99013333 21.0789591,5.62632381 L23.9313489,5.62632381 L23.9313489,6.11889524 L2.13960338,6.11889524 L2.13960338,5.62632381 Z" id="Fill-8"/><path d="M0.72122161,8.76099048 L3.0702257,8.76099048 C3.38430733,8.0775619 3.7566962,7.43527619 4.17339857,6.83070476 L21.9835375,6.84937143 C22.3924655,7.44708571 22.753193,8.08670476 23.0614439,8.76099048 L25.4726424,8.76099048 L25.4726424,9.23032381 L0.72122161,9.23032381 L0.72122161,8.76099048 Z" id="Fill-10"/><path d="M0,11.5734857 L2.14415134,11.5734857 C2.2658191,10.9872 2.42558093,10.4165333 2.61993837,9.86415238 L23.5327996,9.86872381 C23.7221037,10.4127238 23.8674831,10.9932952 23.9852637,11.5734857 L26.1189197,11.5734857 L26.1189197,12.0683429 L0,12.0683429 L0,11.5734857 Z" id="Fill-12"/><path d="M0,14.4871619 L1.84989417,14.4871619 L1.84989417,14.4193524 C1.84989417,13.8654476 1.88176879,13.3203048 1.94357446,12.7854476 L24.1854519,12.7915429 C24.245314,13.3248762 24.2705804,13.8673524 24.2705804,14.4193524 L24.2705804,14.4871619 L26.1189197,14.4871619 L26.1189197,15.0048762 L0,15.0048762 L0,14.4871619 Z" id="Fill-14"/></g></g><g fill="#0089CF" mask="url(#mask-2)"><g transform="translate(9.571429, 45.285714)"><path d="M37.5637005,3.476075 C37.6103004,3.483075 37.6558762,3.489075 37.6999156,3.492575 C37.7447232,3.497825 37.7992605,3.499325 37.8630153,3.499325 C38.0980632,3.499325 38.2844629,3.414075 38.420934,3.244075 C38.5576612,3.073825 38.6262809,2.838825 38.6262809,2.537075 C38.6262809,2.273825 38.5566371,2.058575 38.4173494,1.887575 C38.2798541,1.717325 38.1013918,1.632325 37.884523,1.632325 C37.8563582,1.632325 37.8146231,1.635575 37.76111,1.641075 C37.7075969,1.647575 37.6428179,1.657825 37.5637005,1.672575 L37.5637005,3.476075 Z M37.5637005,7.268575 C37.6569003,7.284075 37.7393463,7.295825 37.8146231,7.303825 C37.8896438,7.311075 37.9523745,7.315825 38.002303,7.315825 C38.3251738,7.315825 38.5909469,7.191325 38.797574,6.947325 C39.0044571,6.701575 39.1081547,6.384325 39.1081547,5.998325 C39.1081547,5.576075 39.0070175,5.238825 38.8029509,4.984825 C38.5996524,4.731075 38.3292705,4.605075 37.991037,4.605075 C37.9446932,4.605075 37.8445802,4.616325 37.6924904,4.638825 C37.6356487,4.647075 37.5926334,4.653325 37.5637005,4.657075 L37.5637005,7.268575 Z M35.0365515,8.480075 C35.1932501,8.321825 35.3028367,8.148825 35.3665916,7.960325 C35.4303464,7.773325 35.4623518,7.471575 35.4623518,7.054575 L35.4623518,1.835575 C35.4623518,1.417575 35.4303464,1.117575 35.3665916,0.932575 C35.3028367,0.749325 35.1932501,0.578325 35.0365515,0.419825 L37.7931155,0.419825 C38.697461,0.419825 39.3900585,0.585075 39.8732125,0.912075 C40.3553424,1.241575 40.5949991,1.710825 40.5949991,2.322325 C40.5949991,2.674075 40.5010311,2.987075 40.3110469,3.259825 C40.1208066,3.532325 39.8437675,3.755825 39.4801858,3.930075 C39.9804947,4.088825 40.3579028,4.345325 40.6159946,4.702575 C40.8725502,5.058075 41.0005719,5.501075 41.0005719,6.030825 C41.0005719,6.344325 40.9511555,6.642825 40.8515546,6.927325 C40.7516977,7.212325 40.6057529,7.468575 40.4129522,7.697325 C40.1676625,7.979575 39.8829422,8.180075 39.5631439,8.299325 C39.2412973,8.420575 38.797574,8.480075 38.2314619,8.480075 L35.0365515,8.480075 Z" id="Fill-16"/><path d="M44.0315376,5.714125 C44.0315376,6.234875 44.1244814,6.632375 44.3134414,6.905875 C44.5031696,7.179125 44.7773922,7.315875 45.1363651,7.315875 C45.5219666,7.315875 45.8107836,7.181875 46.0056327,6.911875 C46.1989455,6.642875 46.2957299,6.242625 46.2957299,5.714125 L46.2957299,1.835875 C46.2957299,1.491625 46.266797,1.213875 46.2066268,1.000625 C46.1495291,0.788125 46.0332854,0.594125 45.8586637,0.419875 L48.8013712,0.419875 C48.6495375,0.574625 48.5402069,0.740625 48.4738916,0.919875 C48.4086006,1.096875 48.3753149,1.402125 48.3753149,1.835875 L48.3753149,7.054625 C48.3753149,7.471125 48.4086006,7.773125 48.4738916,7.959875 C48.5402069,8.149625 48.6495375,8.321875 48.8013712,8.479375 L46.3384892,8.479375 L46.3384892,7.628625 C46.0391744,7.994125 45.7173277,8.264625 45.3721811,8.435875 C45.0265225,8.607875 44.6342639,8.694375 44.1966856,8.694375 C43.8231182,8.694375 43.4907738,8.627875 43.2019568,8.496625 C42.9139079,8.366375 42.6640095,8.170375 42.4543099,7.911125 C42.2720069,7.679125 42.142961,7.411125 42.066148,7.104875 C41.9890789,6.800375 41.9511845,6.359625 41.9511845,5.782625 L41.9511845,1.835875 C41.9511845,1.402125 41.9196911,1.096875 41.8549121,0.919875 C41.7916694,0.740625 41.6820828,0.574625 41.5238479,0.419875 L44.4563137,0.419875 C44.3016634,0.579125 44.1905406,0.749625 44.1272978,0.934125 C44.0620068,1.117375 44.0315376,1.418375 44.0315376,1.835875 L44.0315376,5.714125 Z" id="Fill-18"/><path d="M52.0889181,7.05225 C52.0889181,7.471 52.1209235,7.77325 52.1867267,7.9595 C52.2530419,8.14925 52.3618604,8.32175 52.5147183,8.4795 L49.5812284,8.4795 C49.7374149,8.32175 49.8485378,8.14925 49.9128047,7.9595 C49.9765595,7.77325 50.0085649,7.471 50.0085649,7.05225 L50.0085649,1.8355 C50.0085649,1.402 49.9765595,1.09675 49.9128047,0.91975 C49.8485378,0.741 49.7374149,0.57475 49.5812284,0.4205 L52.5147183,0.4205 C52.3585318,0.57875 52.247409,0.74925 52.1836541,0.934 C52.1204114,1.11725 52.0889181,1.418 52.0889181,1.8355 L52.0889181,4.1165 L53.7055765,1.8355 C53.8277092,1.6695 53.9078508,1.53525 53.9508661,1.43225 C53.9936254,1.32975 54.0146209,1.23125 54.0146209,1.13375 C54.0146209,1.04475 53.9879924,0.95125 53.932431,0.852 C53.8773816,0.754 53.7624181,0.6095 53.5872844,0.4205 L56.2130101,0.4205 L53.7575533,3.79775 L56.6421389,8.4795 L55.523229,8.4795 C54.9425224,8.4795 54.5320848,8.4135 54.2939644,8.27975 C54.0543077,8.1465 53.779317,7.817 53.4636154,7.29025 L52.0889181,4.98675 L52.0889181,7.05225 Z" id="Fill-20"/><path d="M61.3384881,8.670675 C60.112552,8.670675 59.1073254,8.273425 58.3228082,7.480425 C57.537779,6.687425 57.1465446,5.672425 57.1465446,4.437925 C57.1465446,3.873925 57.2617641,3.323175 57.4919472,2.787175 C57.7213621,2.250925 58.0465373,1.777675 58.4667046,1.367175 C58.8523061,0.999175 59.2903965,0.718175 59.782512,0.522675 C60.2748836,0.327675 60.7931155,0.229175 61.3384881,0.229175 C62.5744099,0.229175 63.5850134,0.622675 64.3664581,1.408175 C65.1499511,2.194425 65.5406734,3.207425 65.5406734,4.450175 C65.5406734,5.015425 65.4234055,5.569675 65.1891257,6.112925 C64.9556141,6.657175 64.6337675,7.127675 64.2194891,7.526425 C63.8382404,7.898175 63.4016863,8.181175 62.911107,8.377425 C62.4187355,8.572675 61.8943585,8.670675 61.3384881,8.670675 M59.3572238,4.178675 C59.3572238,5.176925 59.5454157,5.979425 59.9207755,6.584925 C60.295367,7.191425 60.7887628,7.492675 61.4017308,7.492675 C61.9960077,7.492675 62.4663596,7.256925 62.8115061,6.783675 C63.1576769,6.308175 63.3305062,5.653425 63.3305062,4.817675 C63.3305062,3.818425 63.1410341,3.018175 62.7638821,2.416675 C62.38673,1.813925 61.8900057,1.513675 61.2742212,1.513675 C60.6871135,1.513675 60.2198342,1.751675 59.8754558,2.227925 C59.5297971,2.704175 59.3572238,3.353925 59.3572238,4.178675" id="Fill-22"/><path d="M69.3165719,0.419925 C70.0506485,0.419925 70.6313551,0.615175 71.0589477,1.005925 C71.4867963,1.396425 71.6995684,1.922675 71.6995684,2.583925 C71.6995684,3.326175 71.4711777,3.909675 71.0164445,4.334925 C70.5604311,4.760675 69.935685,4.973675 69.1416942,4.973675 C69.0531032,4.973675 68.9089507,4.965925 68.7079566,4.950675 L68.6818402,4.950675 C69.0267307,4.749425 69.2843105,4.497175 69.4489464,4.195425 C69.6138384,3.891675 69.6970525,3.518175 69.6970525,3.073675 C69.6970525,2.637925 69.5954033,2.292425 69.3890322,2.034675 C69.1844535,1.779175 68.904598,1.648425 68.5481855,1.643925 L68.5481855,7.051675 C68.5481855,7.469425 68.580447,7.772675 68.6480424,7.959925 C68.7123094,8.147925 68.8216399,8.321675 68.975266,8.479925 L66.0425442,8.479925 C66.1971944,8.321675 66.3083173,8.147925 66.3725842,7.959925 C66.4368511,7.772675 66.4686005,7.469425 66.4686005,7.051675 L66.4686005,1.841425 C66.4686005,1.422425 66.4368511,1.120175 66.3725842,0.935175 C66.3083173,0.750425 66.1971944,0.579425 66.0425442,0.419925 L69.3165719,0.419925 Z" id="Fill-24"/><path d="M74.6894903,7.05225 C74.6894903,7.471 74.7212397,7.77325 74.7872989,7.9595 C74.8531021,8.14925 74.9624327,8.32175 75.1165708,8.4795 L72.1833369,8.4795 C72.3395235,8.32175 72.4501342,8.14925 72.513377,7.9595 C72.5771318,7.77325 72.6093933,7.471 72.6093933,7.05225 L72.6093933,1.8355 C72.6093933,1.402 72.5771318,1.09675 72.513377,0.91975 C72.4501342,0.741 72.3395235,0.57475 72.1833369,0.4205 L75.1165708,0.4205 C74.9593601,0.57875 74.8502856,0.74925 74.7860187,0.934 C74.7212397,1.11725 74.6894903,1.418 74.6894903,1.8355 L74.6894903,7.05225 Z" id="Fill-26"/><path d="M75.9246952,8.4795 C76.1139113,8.259 76.2478221,8.02275 76.323867,7.7705 C76.4011921,7.516 76.4401107,7.079 76.4401107,6.461 L76.4401107,2.13175 C76.4401107,1.70625 76.394791,1.3785 76.3028714,1.145 C76.2127441,0.913 76.0603982,0.6715 75.8501866,0.42 L78.1381909,0.42 L81.5079789,5.35275 L81.5079789,2.172 C81.5079789,1.781 81.4662438,1.45825 81.3827737,1.19975 C81.302376,0.943 81.1684653,0.68275 80.9820657,0.42 L83.1056901,0.42 C82.9523201,0.69525 82.8409412,0.965 82.7725776,1.2295 C82.7031898,1.49475 82.6670877,1.82125 82.6670877,2.20725 L82.6670877,2.538 L82.6670877,8.68225 C81.6311358,8.55075 80.7093794,7.91675 79.9092436,6.78025 C79.8803106,6.73675 79.8600832,6.707 79.8449766,6.6875 L77.6007557,3.51325 L77.6007557,6.9365 C77.6007557,7.34625 77.6381381,7.65825 77.7126467,7.873 C77.7868993,8.089 77.9144089,8.2905 78.0918471,8.4795 L75.9246952,8.4795 Z" id="Fill-28"/><path d="M2.63801533,3.476075 C2.68487129,3.483075 2.72993494,3.489075 2.7744865,3.492575 C2.81878202,3.497825 2.87306323,3.499325 2.93784223,3.499325 C3.17160991,3.499325 3.3577535,3.414075 3.49345654,3.244075 C3.63120792,3.073825 3.69931548,2.838825 3.69931548,2.537075 C3.69931548,2.273825 3.62967166,2.058575 3.49192028,1.887575 C3.35365681,1.717325 3.17468243,1.632325 2.9583257,1.632325 C2.92964884,1.632325 2.88868188,1.635575 2.8351688,1.641075 C2.78165572,1.647575 2.71687672,1.657825 2.63801533,1.672575 L2.63801533,3.476075 Z M2.63801533,7.268575 C2.73095911,7.284075 2.81366115,7.295825 2.88868188,7.303825 C2.9642147,7.311075 3.02668931,7.315825 3.07508152,7.315825 C3.40076881,7.315825 3.6652617,7.191325 3.87112064,6.947325 C4.07800376,6.701575 4.18118928,6.384325 4.18118928,5.998325 C4.18118928,5.576075 4.0805642,5.238825 3.87700964,4.984825 C3.67396718,4.731075 3.40384133,4.605075 3.06535187,4.605075 C3.01926405,4.605075 2.91991918,4.616325 2.76654915,4.638825 C2.7097075,4.647075 2.66720429,4.653325 2.63801533,4.657075 L2.63801533,7.268575 Z M0.109842195,8.480075 C0.26628475,8.321825 0.376127395,8.148825 0.440394304,7.960325 C0.504661213,7.773325 0.536410602,7.471575 0.536410602,7.054575 L0.536410602,1.835575 C0.536410602,1.417575 0.504661213,1.117575 0.440394304,0.932575 C0.376127395,0.749325 0.26628475,0.578325 0.109842195,0.419825 L2.86717423,0.419825 C3.77126369,0.419825 4.46360521,0.585075 4.94650318,0.912075 C5.42888906,1.241575 5.670082,1.710825 5.670082,2.322325 C5.670082,2.674075 5.57457779,2.987075 5.38459355,3.259825 C5.19307304,3.532325 4.91731423,3.755825 4.55475669,3.930075 C5.05506561,4.088825 5.43272972,4.345325 5.68902922,4.702575 C5.9463529,5.058075 6.07488672,5.501075 6.07488672,6.030825 C6.07488672,6.344325 6.02444616,6.642825 5.92510129,6.927325 C5.82575643,7.212325 5.67929957,7.468575 5.48701093,7.697325 C5.24044108,7.979575 4.95674492,8.180075 4.63592246,8.299325 C4.31561209,8.420575 3.87112064,8.480075 3.30500855,8.480075 L0.109842195,8.480075 Z" id="Fill-30"/><path d="M9.24176027,4.9612 L10.7664991,4.9612 L10.00605,2.47895 L9.24176027,4.9612 Z M6.60374449,8.47995 C6.771709,8.2667 6.90741203,8.06395 7.01546237,7.8717 C7.12172041,7.6782 7.20749497,7.48045 7.27176188,7.2807 L9.01208929,1.8707 C9.02309915,1.83545 9.03897385,1.78695 9.06022546,1.7247 C9.13806267,1.50495 9.17698127,1.3292 9.17698127,1.19745 C9.17698127,1.0772 9.15214506,0.96045 9.10016824,0.84895 C9.04895954,0.7377 8.95371138,0.5937 8.81442373,0.41995 L11.4401494,0.41995 L13.5458509,7.0297 C13.6387946,7.3212 13.7555505,7.58895 13.8968864,7.83595 C14.0364301,8.08295 14.1923606,8.29845 14.3641658,8.47995 L11.1467236,8.47995 C11.3103354,8.2787 11.4168495,8.12195 11.467034,8.0102 C11.5167064,7.8987 11.5415426,7.77795 11.5415426,7.65095 C11.5415426,7.5737 11.5366778,7.49945 11.5289965,7.4312 C11.5192669,7.3612 11.5059526,7.3017 11.4875175,7.25045 L11.1144621,6.0912 L8.87817856,6.0912 L8.53098362,7.1982 C8.48873645,7.3417 8.46005958,7.4457 8.44828158,7.5117 C8.43624754,7.57745 8.43035854,7.6352 8.43035854,7.6857 C8.43035854,7.8247 8.45903541,7.96045 8.51792541,8.0917 C8.57630331,8.22295 8.66540644,8.35295 8.78190621,8.47995 L6.60374449,8.47995 Z" id="Fill-32"/><path d="M15.0417336,8.4795 C15.2312057,8.259 15.3640923,8.02275 15.4409053,7.7705 C15.5187425,7.516 15.5574051,7.079 15.5574051,6.461 L15.5574051,2.13175 C15.5574051,1.70625 15.5110612,1.3785 15.4201658,1.145 C15.3290143,0.913 15.1771806,0.6715 14.9659447,0.42 L17.2554853,0.42 L20.6242492,5.35275 L20.6242492,2.172 C20.6242492,1.781 20.5832822,1.45825 20.5010923,1.19975 C20.4183902,0.943 20.2844795,0.68275 20.0983359,0.42 L22.2217043,0.42 C22.0691024,0.69525 21.9579796,0.965 21.8883357,1.2295 C21.8181798,1.49475 21.7851502,1.82125 21.7851502,2.20725 L21.7851502,2.538 L21.7851502,8.68225 C20.7463819,8.55075 19.82821,7.91675 19.0260259,6.78025 C18.9965809,6.73675 18.9753293,6.707 18.961759,6.6875 L16.7167699,3.51325 L16.7167699,6.9365 C16.7167699,7.34625 16.7549204,7.65825 16.8289169,7.873 C16.9044498,8.089 17.0319594,8.2905 17.2106777,8.4795 L15.0417336,8.4795 Z" id="Fill-34"/><path d="M25.6729141,7.05225 C25.6729141,7.471 25.7064558,7.77325 25.7717469,7.9595 C25.837038,8.14925 25.9471367,8.32175 26.0994825,8.4795 L23.1667607,8.4795 C23.3239714,8.32175 23.433558,8.14925 23.4978249,7.9595 C23.5615798,7.77325 23.5933291,7.471 23.5933291,7.05225 L23.5933291,1.8355 C23.5933291,1.402 23.5615798,1.09675 23.4978249,0.91975 C23.433558,0.741 23.3239714,0.57475 23.1667607,0.4205 L26.0994825,0.4205 C25.9435521,0.57875 25.8331973,0.74925 25.7689304,0.934 C25.7046635,1.11725 25.6729141,1.418 25.6729141,1.8355 L25.6729141,4.1165 L27.2895726,1.8355 C27.4114492,1.6695 27.4936392,1.53525 27.5363985,1.43225 C27.5794138,1.32975 27.6006654,1.23125 27.6006654,1.13375 C27.6006654,1.04475 27.5725006,0.95125 27.5174512,0.852 C27.4618898,0.754 27.3471823,0.6095 27.1725607,0.4205 L29.7993106,0.4205 L27.3441098,3.79775 L30.226135,8.4795 L29.1090174,8.4795 C28.5280548,8.4795 28.1178732,8.4135 27.8797527,8.27975 C27.6403521,8.1465 27.3638252,7.817 27.0496598,7.29025 L25.6729141,4.98675 L25.6729141,7.05225 Z" id="Fill-36"/></g></g></g></g></g></svg>