<?xml version="1.0" ?><svg height="72px" version="1.1" viewBox="0 0 100 72" width="100px" xmlns="http://www.w3.org/2000/svg" xmlns:xlink="http://www.w3.org/1999/xlink"><title/><desc/><defs><rect height="71.4285714" id="path-1" rx="6.63157895" width="100" x="0" y="0"/></defs><g fill="none" fill-rule="evenodd" id="Content" stroke="none" stroke-width="1"><g id="Indonesian-Bank-Icons" transform="translate(-210.000000, -755.000000)"><g id="CIMB" transform="translate(210.000000, 755.000000)"><mask fill="white" id="mask-2"><use xlink:href="#path-1"/></mask><use fill="#EE3124" id="Background" xlink:href="#path-1"/><g id="Logo-CIMB" mask="url(#mask-2)"><g transform="translate(8.571429, 24.285714)"><g fill="none" id="Logogram" stroke-width="1"><polygon fill="#FFFFFF" id="Fill-1" points="0 22.5669635 22.8411317 22.5669635 22.8411317 5.31561461e-05 0 5.31561461e-05"/><polygon fill="#ED3124" id="Fill-2" points="15.2244082 4.26439867 3.08637477 4.26439867 8.46132839 11.2826047 20.6004378 11.2826047"/><polygon fill="#820024" id="Fill-3" points="20.6002764 11.282711 8.46116698 11.282711 3.08621336 18.3003854 15.2242468 18.3003854"/></g><path d="M77.8264768,15.9966512 L74.8667551,15.9966512 L74.8667551,12.518113 L77.8264768,12.518113 C79.2070705,12.518113 79.7009852,13.4121993 79.7009852,14.2483455 C79.7009852,15.0940598 79.2070705,15.9966512 77.8264768,15.9966512 L77.8264768,15.9966512 Z M74.8667551,6.56834551 L77.6381651,6.56834551 C78.8008553,6.56834551 79.4933043,7.17432558 79.4933043,8.19598671 C79.4933043,9.21445847 78.8008553,9.81990698 77.6381651,9.81990698 L74.8667551,9.81990698 L74.8667551,6.56834551 Z M80.7603729,11.0956545 C81.4243061,10.7357874 82.5132857,9.72209967 82.5132857,8.07106977 C82.5132857,5.49246512 80.7329332,3.88768106 77.8662913,3.88768106 L71.8451596,3.88768106 L71.8451596,18.6746578 L78.119705,18.6746578 C80.9572931,18.6746578 82.7215046,17.0363854 82.7215046,14.3929302 C82.7215046,12.4070166 81.5421354,11.4858206 80.7603729,11.0956545 L80.7603729,11.0956545 Z M60.0869777,13.3351229 C59.9734527,13.1432292 54.8007996,3.85844518 54.8007996,3.85844518 L51.8453822,3.85844518 L51.8453822,18.646485 L54.8653636,18.646485 L54.8653636,9.81246512 C55.0951039,10.1994419 60.0869777,18.7660864 60.0869777,18.7660864 C60.0869777,18.7660864 65.0557161,10.200505 65.2773859,9.81459136 L65.2773859,18.646485 L68.3005955,18.646485 L68.3005955,3.85844518 L65.3467922,3.85844518 C65.3467922,3.85844518 60.1924323,13.1432292 60.0869777,13.3351229 L60.0869777,13.3351229 Z M45.1167365,18.6746578 L48.1474787,18.6746578 L48.1474787,3.88768106 L45.1167365,3.88768106 L45.1167365,18.6746578 Z M40.1124879,15.1126645 C39.2311892,15.8079468 38.164269,16.1736611 37.0397792,16.1736611 C34.3092597,16.1736611 32.1856419,14.0261528 32.1856419,11.2827641 C32.1856419,8.53884385 34.3092597,6.38974086 37.0397792,6.38974086 C38.164269,6.38974086 39.2311892,6.75598671 40.1124879,7.45233223 L40.1544545,7.48528904 L42.2603173,5.4058206 L42.2124323,5.361701 C40.7715788,4.13166777 38.937961,3.45286379 37.0397792,3.45286379 C32.621987,3.45286379 29.0279239,6.96595349 29.0279239,11.2827641 C29.0279239,15.5985116 32.621987,19.1105382 37.0397792,19.1105382 C38.937961,19.1105382 40.7715788,18.4333289 42.2124323,17.2032957 L42.2603173,17.1570498 L40.1544545,15.0797076 L40.1124879,15.1126645 Z" fill="#FFFFFF" id="CIMB"/></g></g></g></g></g></svg>