<?xml version="1.0" ?><svg height="72px" version="1.1" viewBox="0 0 100 72" width="100px" xmlns="http://www.w3.org/2000/svg" xmlns:xlink="http://www.w3.org/1999/xlink"><title/><desc/><defs><rect height="71.4285714" id="path-1" rx="6.63157895" width="100" x="0" y="0"/></defs><g fill="none" fill-rule="evenodd" id="Content" stroke="none" stroke-width="1"><g id="Indonesian-Bank-Icons" transform="translate(-690.000000, -755.000000)"><g id="HSBC" transform="translate(690.000000, 755.000000)"><mask fill="white" id="mask-2"><use xlink:href="#path-1"/></mask><use fill="#FFFFFF" id="Background" xlink:href="#path-1"/><g id="Logo-HSBC" mask="url(#mask-2)"><g transform="translate(7.142857, 28.571429)"><g id="HSBC"><path d="M11.2617764,8.17418776 C11.2508836,8.17418776 11.2617764,13.2904063 11.2617764,13.2904063 C11.2617764,13.9345806 10.6883764,14.4976818 9.93807643,14.4976818 L9.21784071,14.4976818 L9.21784071,14.7595942 L15.3076014,14.7595942 L15.3076014,14.4976818 L14.5880193,14.4976818 C13.8464336,14.4976818 13.2638836,13.9255491 13.2638836,13.2904063 L13.2638836,8.09374473 L13.2638836,1.89123027 C13.2638836,1.26721922 13.8370657,0.685214966 14.5880193,0.685214966 L15.3076014,0.685214966 L15.3076014,0.423092517 L9.21784071,0.423092517 L9.21784071,0.685214966 L9.93807643,0.685214966 C10.6977443,0.685214966 11.2617764,1.26721922 11.2617764,1.89123027 L11.2617764,7.44810017 L4.04525857,7.44810017 L4.04525857,1.89123027 C4.04525857,1.26721922 4.62955143,0.685214966 5.37157286,0.685214966 L6.09071929,0.685214966 L6.09071929,0.423092517 L8.71428567e-05,0.423092517 L8.71428567e-05,0.685214966 L0.719233571,0.685214966 C1.46888,0.685214966 2.043805,1.26721922 2.043805,1.89123027 L2.043805,8.09374473 L2.043805,13.2904063 C2.043805,13.9255491 1.46888,14.4976818 0.719233571,14.4976818 L8.71428567e-05,14.4976818 L8.71428567e-05,14.7595942 L6.09071929,14.7595942 L6.09071929,14.4976818 L5.37157286,14.4976818 C4.62955143,14.4976818 4.04525857,13.9255491 4.04525857,13.2904063 C4.04525857,13.2904063 4.05549786,8.17418776 4.04525857,8.17418776 L11.2617764,8.17418776 Z" fill="#231F20" id="Fill-1"/><path d="M25.7450064,11.0084077 C25.79751,11.8506441 25.2548279,13.1305914 24.50431,13.782327 C23.78146,14.4111688 22.7529564,14.9595676 21.3760993,14.9595676 C19.8123207,14.9595676 18.4663993,14.1545072 17.9762207,13.974298 C17.6794993,13.8636101 17.2899707,13.8762122 17.0579529,14.0137844 C16.7882457,14.1757207 16.6202779,14.4349026 16.5568814,14.9198712 L16.3283493,14.9198712 L16.3283493,9.95130655 L16.5568814,9.95130655 C16.7662421,11.479304 17.5056493,12.3784596 17.9668529,12.887162 C18.7171529,13.7228873 20.13366,14.1954639 21.5007136,13.9841696 C22.5860779,13.8159324 23.7733993,12.6796484 23.6448636,11.275361 C23.5980243,10.7672887 23.4814707,10.0271288 22.3869564,9.3384273 C21.7011421,8.90512713 20.723835,8.29035757 19.8003386,7.69911182 C18.6350207,6.95496131 17.5753636,6.14738053 17.2784243,5.81888733 C16.8873707,5.39230825 16.401985,4.77480825 16.401985,3.78764838 C16.401985,2.94373172 16.7355243,1.97862543 17.4444314,1.33571131 C18.1533386,0.69258716 19.1136529,0.209928997 20.4892029,0.209928997 C21.8658421,0.209928997 22.9095957,0.913542942 23.2627421,1.07547917 C23.6163243,1.23426488 24.0099921,1.19813903 24.2335136,1.07547917 C24.4515886,0.954289541 24.5975529,0.774080357 24.6600779,0.289741922 L24.8899171,0.289741922 L24.8899171,4.995554 L24.6600779,4.995554 C24.4515886,3.46629634 23.76316,2.32203104 23.2845279,1.89965264 C22.8056779,1.4764341 21.8658421,0.893379677 20.4685064,1.15529209 C19.1269421,1.40565264 18.4748957,1.98933716 18.3515886,3.02438478 C18.25791,3.8130625 18.7012493,4.29803104 18.9557064,4.59207866 C19.4787814,5.19655655 22.7878136,7.00473937 24.2855814,8.25339158 C25.057885,8.8956756 25.661785,9.66040944 25.7450064,11.0084077" fill="#231F20" id="Fill-3"/><path d="M35.3886054,7.43906871 C38.0403625,8.31575068 38.7961089,10.1199429 38.3046232,11.979794 C37.7264304,14.1635177 35.1707482,14.6089998 34.3411482,14.7135968 C33.9670875,14.7602243 33.0135268,14.7570738 32.0693339,14.7570738 C30.3844268,14.7579139 28.2522589,14.752033 26.5420804,14.752033 L26.5420804,14.4920109 L27.4178661,14.4920109 C27.9751446,14.4920109 28.6121589,14.0391776 28.6121589,13.356567 L28.6121589,1.91013333 C28.6121589,1.22500238 27.9751446,0.763977721 27.4230946,0.763977721 L26.5479625,0.763977721 L26.5479625,0.50227534 L31.8336125,0.50227534 C33.1054625,0.50227534 33.7973768,0.619264286 34.2411518,0.704118027 C34.9934125,0.843160544 37.1835304,1.46633146 37.7059518,3.43771071 C38.1076804,4.96339779 37.3175125,6.88562908 35.3886054,7.43906871 L35.3886054,7.43906871 Z M30.5929161,7.03622347 C31.3229554,7.21664269 33.4718982,7.26642075 34.3054196,6.75561803 C35.6116911,5.95622857 36.0657054,4.67334082 35.8236661,3.53726684 C35.6800982,2.85549643 35.3053839,2.22770476 34.6590018,1.78915374 C33.3871518,0.924023639 31.5527946,1.06558656 30.5929161,1.34640204 L30.5929161,7.03622347 Z M30.5929161,13.9484429 C31.6225089,14.2565628 33.5836589,14.4920109 34.9518018,13.547698 C36.5903054,12.4170849 36.9353911,9.65135697 34.6215304,8.21157381 C33.6897554,7.63019966 31.3643482,7.67199643 30.5929161,7.84485442 L30.5929161,13.9484429 Z" fill="#231F20" id="Fill-6"/><path d="M52.2435807,0.673558078 L52.4575164,5.52975451 L52.1555664,5.53962611 C52.0091664,4.3119773 51.5296629,3.44663716 50.925545,2.88416607 C50.7512593,2.72285995 50.4212057,2.39436675 49.9432271,2.10535995 C49.1497914,1.62228172 47.96857,1.1954926 46.5660057,1.43703172 C44.4586736,1.79829022 43.37527,3.14040757 42.8332414,4.43232679 C42.1657271,6.0212341 41.74352,8.7382341 42.8746343,11.0288651 C43.7939914,12.8889263 45.55907,13.6637418 46.9204593,13.8634841 C48.0816379,14.0334016 50.6536593,13.9825734 52.6158986,11.4317103 L52.9269986,11.6314526 C51.4039593,13.702388 49.3796307,15.0314832 47.0670771,15.0104798 C44.1050914,14.9850657 42.2448093,13.411911 41.3938593,12.4766295 C40.4969414,11.4900997 39.8091664,9.62100706 39.80067,7.99240332 C39.793045,6.54484889 40.1237521,4.93262781 40.6640379,3.99104532 C41.5908021,2.37231318 43.5319093,0.763452636 46.085195,0.522753656 C47.9992879,0.342754507 49.2567593,0.704223044 50.3305771,1.29588886 C50.8680307,1.59245689 51.1697629,1.62627236 51.4621271,1.50844328 C51.7542736,1.38599345 51.98847,1.14634464 51.98847,0.673558078 L52.2435807,0.673558078 Z" fill="#231F20" id="Fill-8"/></g><g id="Logogram" transform="translate(57.142857, 0.000000)"><polygon fill="#FFFFFF" id="Fill-10" points="7.65047143 14.7570738 22.5065857 14.7570738 22.5065857 0.43737483 7.65047143 0.43737483"/><polygon fill="#EE3624" id="Fill-12" points="0.219102857 7.59741335 7.64803143 14.7595732 7.64803143 0.434833418"/><polygon fill="#EE3624" id="Fill-13" points="7.65007929 14.7594892 22.5066293 14.7594892 15.0781364 7.59732934"/><polygon fill="#EE3624" id="Fill-14" points="15.0780711 7.59741335 22.5074354 0.434833418 7.64936036 0.434833418"/><polygon fill="#EE3624" id="Fill-15" points="22.5090257 0.434812415 22.5090257 14.7595522 29.9370829 7.59739235"/></g></g></g></g></g></g></svg>