<?xml version="1.0" ?><svg height="72px" version="1.1" viewBox="0 0 100 72" width="100px" xmlns="http://www.w3.org/2000/svg" xmlns:xlink="http://www.w3.org/1999/xlink"><title/><desc/><defs><rect height="71.4285714" id="path-1" rx="6.63157895" width="100" x="0" y="0"/></defs><g fill="none" fill-rule="evenodd" id="Content" stroke="none" stroke-width="1"><g id="Indonesian-Bank-Icons" transform="translate(-530.000000, -887.000000)"><g id="Bank-Indonesia" transform="translate(530.000000, 887.000000)"><mask fill="white" id="mask-2"><use xlink:href="#path-1"/></mask><use fill="#004F91" id="Background" xlink:href="#path-1"/><path d="M72.8571429,36.4272598 C72.8571429,24.1982808 62.941953,14.2857143 50.7155974,14.2857143 C38.4850444,14.2857143 28.5714286,24.1982808 28.5714286,36.4272598 C28.5714286,48.6546647 38.4850444,58.5703792 50.7155974,58.5703792 C62.941953,58.5703792 72.8571429,48.6546647 72.8571429,36.4272598 L72.8571429,36.4272598 Z M45.1929342,54.5204612 C46.9495252,54.5204612 48.2601477,54.3483699 48.3545881,51.9595531 L52.6778585,51.9595531 C52.7722988,54.3483699 54.0997108,54.4260209 55.8122295,54.4260209 L55.8122295,55.637481 L45.1929342,55.637481 L45.1929342,54.5204612 Z M56.4093025,34.4970035 C58.724141,35.2299657 64.1570858,37.7074515 64.1570858,42.8329404 C64.1570858,47.8881237 59.3920443,50.8991976 53.7361153,50.8991976 L37.2714856,50.8991976 L37.288275,49.5875257 C40.2752141,49.5875257 41.1598056,49.1940242 41.1598056,46.1441248 L41.1598056,26.8531046 C41.1598056,23.4579732 39.8198017,23.2454823 37.2825037,23.2454823 L37.2825037,22.0251029 C37.7578535,22.0140848 43.7390772,22.0219548 48.3545881,22.0251029 C48.2601477,19.6336627 46.9495252,19.4599974 45.1929342,19.4599974 L45.1929342,18.3450763 L55.8122295,18.3450763 L55.8122295,19.5560118 C54.0997108,19.5560118 52.7722988,19.6336627 52.6778585,22.0251029 L53.7361153,22.0251029 C56.1244074,22.0251029 61.9891546,22.8472588 62.0001726,27.6757852 C62.0085673,31.0640959 59.7199623,33.2194351 56.4093025,34.4970035 L56.4093025,34.4970035 Z M59.6029612,43.6440783 C59.6029612,39.6340351 56.8494996,36.9645205 53.5000144,35.3469668 C51.3152938,35.821792 48.750713,36.0998665 46.3519275,36.1203285 L46.9547719,34.624498 C47.499378,34.6066592 47.9117676,34.5730804 48.3545881,34.546847 L48.3545881,24.51623 L52.6778585,24.51623 L52.6778585,33.8983564 C56.3006961,32.8290815 57.8175134,30.678989 57.8175134,28.1826152 C57.8175134,24.9831852 55.3914452,23.4553498 52.6668404,23.4553498 L45.4914707,23.4579732 L45.4914707,46.2327938 C45.4914707,48.6436467 46.9411305,49.1489027 48.3545881,49.1740868 L48.3545881,37.328116 C49.9752898,37.2714518 51.7166653,37.0411222 52.6778585,36.8176133 L52.6778585,49.1740868 C56.1328021,49.1709388 59.6029612,47.0659678 59.6029612,43.6440783 L59.6029612,43.6440783 Z" fill="#FFFFFF" id="Logo-Bank-Indonesia" mask="url(#mask-2)"/></g></g></g></svg>